<?xml version="1.0" encoding="UTF-8"?><svg id="Layer_1" xmlns="http://www.w3.org/2000/svg" viewBox="0 0 360 89.17"><defs><style>.cls-1{fill:#231f20;}.cls-1,.cls-2,.cls-3,.cls-4,.cls-5{stroke-width:0px;}.cls-2{fill:#e04f39;}.cls-3{fill:#fff;}.cls-4{fill:#e98300;}.cls-5{fill:#007c92;}</style></defs><rect class="cls-5" y="0" width="55.14" height="89.17"/><rect class="cls-4" x="55.14" width="152.43" height="89.17"/><rect class="cls-2" x="207.57" width="152.43" height="89.17"/><path class="cls-3" d="m6.31,24.79h1.48l1.4,4.02c.18.53.34,1.01.49,1.58h.05c.17-.58.3-1.06.47-1.58l1.42-4.02h1.46v7.86h-1.12v-3.95c0-.72.1-1.82.18-2.53h-.05l-.62,1.96-1.37,3.77h-.84l-1.37-3.77-.61-1.96h-.05c.08.71.17,1.81.17,2.53v3.95h-1.09v-7.86Z"/><path class="cls-3" d="m14.7,31.1c0-1.32,1.08-1.93,3.53-2.21-.01-.66-.28-1.26-1.14-1.26-.62,0-1.2.26-1.7.58l-.44-.82c.6-.38,1.43-.76,2.36-.76,1.44,0,2.11.92,2.11,2.48v3.53h-.98l-.08-.67h-.05c-.55.46-1.16.82-1.87.82-1.01,0-1.73-.65-1.73-1.69Zm3.53.04v-1.4c-1.77.22-2.37.61-2.37,1.28,0,.58.41.8.94.8s.95-.23,1.44-.68Z"/><path class="cls-3" d="m20.54,31.94l.53-.68c.52.42,1.04.62,1.72.62.71,0,1.04-.35,1.04-.8,0-.54-.62-.77-1.27-1.01-.88-.31-1.69-.77-1.69-1.71s.79-1.72,2.09-1.72c.76,0,1.42.29,1.88.68l-.53.68c-.42-.3-.84-.46-1.34-.46-.66,0-.97.35-.97.74,0,.48.48.68,1.21.94.91.31,1.75.73,1.75,1.77,0,.98-.78,1.79-2.21,1.79-.84,0-1.66-.31-2.21-.85Z"/><path class="cls-3" d="m26.21,30.73v-2.99h-.85v-.9l.91-.06.14-1.86h.98v1.86h1.55v.96h-1.55v2.99c0,.71.25,1.08.88,1.08.2,0,.42-.04.64-.13l.23.84c-.31.14-.72.25-1.16.25-1.3,0-1.76-.83-1.76-2.04Z"/><path class="cls-3" d="m29.63,29.72c0-1.92,1.31-3.08,2.67-3.08,1.56,0,2.37,1.13,2.37,2.77,0,.24-.01.46-.06.66h-3.79c.13,1.2.91,1.76,1.8,1.76.54,0,1.01-.16,1.42-.42l.42.77c-.53.37-1.2.61-1.97.61-1.62,0-2.87-1.13-2.87-3.07Zm1.21-.58h2.78c0-.98-.44-1.56-1.3-1.56-.64,0-1.32.41-1.49,1.56Z"/><path class="cls-3" d="m36.06,26.79h.97l.1,1.06h.04c.4-.74,1.01-1.2,1.67-1.2.28,0,.46.04.64.12l-.24,1.02c-.18-.05-.31-.07-.55-.07-.48,0-1.06.34-1.43,1.27v3.67h-1.19v-5.86Z"/><path class="cls-3" d="m40.35,27.18c.62-.38.95-.82.95-1.5-.04.01-.07.01-.11.01-.37,0-.71-.24-.71-.67,0-.46.3-.74.71-.74.55,0,.85.43.85,1.21,0,1-.47,1.74-1.39,2.24l-.3-.55Z"/><path class="cls-3" d="m42.67,31.94l.53-.68c.52.42,1.04.62,1.72.62.71,0,1.04-.35,1.04-.8,0-.54-.62-.77-1.27-1.01-.88-.31-1.69-.77-1.69-1.71s.79-1.72,2.09-1.72c.76,0,1.42.29,1.88.68l-.53.68c-.42-.3-.84-.46-1.34-.46-.66,0-.97.35-.97.74,0,.48.48.68,1.21.94.91.31,1.75.73,1.75,1.77,0,.98-.78,1.79-2.21,1.79-.84,0-1.65-.31-2.21-.85Z"/><path class="cls-3" d="m5.3,59.56h3.59v-9.54h-3.09v-2.37c1.79-.34,2.94-.81,4.11-1.51h2.81v13.42h3.09v3.09H5.3v-3.09Z"/><path class="cls-3" d="m24.98,49.36h-7.41v-3.22h11.49v2.34c-3.93,4.68-4.6,7.72-4.89,14.17h-3.85c.31-5.49,1.43-8.92,4.65-13.29Z"/><path class="cls-3" d="m30.05,50.74c0-3.38,1.77-5.36,4.21-5.36s4.24,1.98,4.24,5.36-1.79,5.41-4.24,5.41-4.21-2-4.21-5.41Zm5.77,0c0-2.42-.7-3.22-1.56-3.22s-1.56.81-1.56,3.22.7,3.28,1.56,3.28,1.56-.86,1.56-3.28Zm8.16-5.36h2.21l-9.15,17.58h-2.21l9.15-17.58Zm-1.43,12.17c0-3.38,1.77-5.36,4.21-5.36s4.24,1.98,4.24,5.36-1.79,5.41-4.24,5.41-4.21-2-4.21-5.41Zm5.77,0c0-2.42-.7-3.22-1.56-3.22s-1.56.81-1.56,3.22.7,3.28,1.56,3.28,1.56-.86,1.56-3.28Z"/><path class="cls-1" d="m109.56,23.97h2.04c2.41,0,3.77,1.34,3.77,3.9s-1.36,3.96-3.71,3.96h-2.1v-7.86Zm1.96,6.88c1.7,0,2.61-1.03,2.61-2.99s-.91-2.93-2.61-2.93h-.76v5.91h.76Z"/><path class="cls-1" d="m116.48,28.9c0-1.96,1.31-3.08,2.76-3.08s2.75,1.13,2.75,3.08-1.29,3.07-2.75,3.07-2.76-1.13-2.76-3.07Zm4.28,0c0-1.26-.59-2.1-1.52-2.1s-1.54.84-1.54,2.1.6,2.1,1.54,2.1,1.52-.84,1.52-2.1Z"/><path class="cls-1" d="m123.03,28.9c0-1.96,1.36-3.08,2.89-3.08.76,0,1.31.28,1.7.67l-.58.73c-.28-.25-.61-.42-1.08-.42-.98,0-1.71.84-1.71,2.1s.7,2.1,1.69,2.1c.5,0,.95-.2,1.28-.52l.5.73c-.49.47-1.15.76-1.88.76-1.61,0-2.82-1.13-2.82-3.07Z"/><path class="cls-1" d="m129.02,29.91v-2.99h-.85v-.9l.91-.06.14-1.86h.98v1.86h1.55v.96h-1.55v2.99c0,.71.25,1.08.88,1.08.2,0,.42-.04.64-.13l.23.84c-.31.14-.72.25-1.16.25-1.3,0-1.76-.83-1.76-2.04Z"/><path class="cls-1" d="m132.44,28.9c0-1.96,1.31-3.08,2.76-3.08s2.75,1.13,2.75,3.08-1.29,3.07-2.75,3.07-2.76-1.13-2.76-3.07Zm4.28,0c0-1.26-.59-2.1-1.52-2.1s-1.54.84-1.54,2.1.6,2.1,1.54,2.1,1.52-.84,1.52-2.1Z"/><path class="cls-1" d="m139.41,25.96h.97l.1,1.06h.04c.4-.74,1.01-1.2,1.67-1.2.28,0,.46.04.64.12l-.24,1.02c-.18-.05-.31-.07-.55-.07-.48,0-1.06.34-1.43,1.27v3.67h-1.19v-5.86Z"/><path class="cls-1" d="m143.09,30.28c0-1.32,1.08-1.93,3.53-2.21-.01-.66-.28-1.26-1.14-1.26-.62,0-1.2.26-1.7.58l-.44-.82c.6-.38,1.43-.76,2.36-.76,1.44,0,2.11.92,2.11,2.48v3.53h-.98l-.08-.67h-.05c-.55.46-1.16.82-1.87.82-1.01,0-1.73-.65-1.73-1.69Zm3.53.04v-1.4c-1.77.22-2.37.61-2.37,1.28,0,.58.41.8.94.8s.95-.23,1.44-.68Z"/><path class="cls-1" d="m149.55,30.46v-7.14h1.19v7.21c0,.34.13.43.29.43.06,0,.11,0,.2-.02l.16.89c-.16.07-.36.12-.65.12-.86,0-1.19-.55-1.19-1.49Z"/><path class="cls-1" d="m111.48,57.27h-8.25v-3.03l6.96-11.46h5.4v11.13h2.19v3.36h-2.19v4.56h-4.11v-4.56Zm0-3.36v-3.09c0-1.23.12-3.06.18-4.26h-.12c-.48,1.05-1.02,2.13-1.56,3.21l-2.52,4.14h4.02Z"/><path class="cls-1" d="m128.37,46.5h-8.55v-3.72h13.26v2.7c-4.53,5.4-5.31,8.91-5.64,16.35h-4.44c.36-6.33,1.65-10.29,5.37-15.33Z"/><path class="cls-1" d="m135.12,48.09c0-3.9,2.04-6.18,4.86-6.18s4.89,2.28,4.89,6.18-2.07,6.24-4.89,6.24-4.86-2.31-4.86-6.24Zm6.66,0c0-2.79-.81-3.72-1.8-3.72s-1.8.93-1.8,3.72.81,3.78,1.8,3.78,1.8-.99,1.8-3.78Zm9.42-6.18h2.55l-10.56,20.28h-2.55l10.56-20.28Zm-1.65,14.04c0-3.9,2.04-6.18,4.86-6.18s4.89,2.28,4.89,6.18-2.07,6.24-4.89,6.24-4.86-2.31-4.86-6.24Zm6.66,0c0-2.79-.81-3.72-1.8-3.72s-1.8.93-1.8,3.72.81,3.78,1.8,3.78,1.8-.99,1.8-3.78Z"/><path class="cls-1" d="m252.19,24.79h2.36c1.75,0,3,.6,3,2.36s-1.25,2.49-2.95,2.49h-1.21v3h-1.2v-7.86Zm2.29,3.89c1.27,0,1.88-.48,1.88-1.52s-.66-1.4-1.93-1.4h-1.04v2.93h1.09Z"/><path class="cls-1" d="m258.98,26.79h.97l.1,1.06h.04c.4-.74,1.01-1.2,1.67-1.2.28,0,.46.04.64.12l-.24,1.02c-.18-.05-.31-.07-.55-.07-.48,0-1.06.34-1.43,1.27v3.67h-1.19v-5.86Z"/><path class="cls-1" d="m262.76,29.72c0-1.96,1.31-3.08,2.76-3.08s2.75,1.13,2.75,3.08-1.29,3.07-2.75,3.07-2.76-1.13-2.76-3.07Zm4.28,0c0-1.26-.59-2.1-1.52-2.1s-1.54.84-1.54,2.1.6,2.1,1.54,2.1,1.52-.84,1.52-2.1Z"/><path class="cls-1" d="m269.89,27.75h-.86v-.9l.86-.06v-.76c0-1.21.55-2.03,1.83-2.03.4,0,.77.1,1.02.2l-.24.85c-.23-.07-.43-.11-.64-.11-.53,0-.79.36-.79,1.07v.77h1.2v.96h-1.2v4.91h-1.19v-4.91Z"/><path class="cls-1" d="m272.8,29.72c0-1.92,1.31-3.08,2.67-3.08,1.56,0,2.38,1.13,2.38,2.77,0,.24-.01.46-.06.66h-3.79c.13,1.2.91,1.76,1.8,1.76.54,0,1.01-.16,1.42-.42l.42.77c-.53.37-1.2.61-1.97.61-1.62,0-2.87-1.13-2.87-3.07Zm1.21-.58h2.78c0-.98-.44-1.56-1.29-1.56-.64,0-1.32.41-1.49,1.56Z"/><path class="cls-1" d="m278.61,31.94l.53-.68c.52.42,1.04.62,1.71.62.71,0,1.04-.35,1.04-.8,0-.54-.62-.77-1.27-1.01-.88-.31-1.69-.77-1.69-1.71s.79-1.72,2.09-1.72c.76,0,1.42.29,1.88.68l-.53.68c-.42-.3-.84-.46-1.34-.46-.66,0-.97.35-.97.74,0,.48.48.68,1.21.94.91.31,1.75.73,1.75,1.77,0,.98-.78,1.79-2.21,1.79-.84,0-1.65-.31-2.21-.85Z"/><path class="cls-1" d="m283.71,31.94l.53-.68c.52.42,1.04.62,1.72.62.71,0,1.04-.35,1.04-.8,0-.54-.62-.77-1.27-1.01-.88-.31-1.69-.77-1.69-1.71s.79-1.72,2.09-1.72c.75,0,1.42.29,1.88.68l-.53.68c-.42-.3-.84-.46-1.34-.46-.66,0-.97.35-.97.74,0,.48.48.68,1.21.94.91.31,1.75.73,1.75,1.77,0,.98-.78,1.79-2.21,1.79-.84,0-1.66-.31-2.21-.85Z"/><path class="cls-1" d="m289.28,24.95c0-.42.31-.71.74-.71s.74.29.74.71c0,.44-.31.72-.74.72s-.74-.28-.74-.72Zm.16,1.83h1.19v5.86h-1.19v-5.86Z"/><path class="cls-1" d="m292.06,29.72c0-1.96,1.31-3.08,2.76-3.08s2.75,1.13,2.75,3.08-1.29,3.07-2.75,3.07-2.76-1.13-2.76-3.07Zm4.28,0c0-1.26-.59-2.1-1.52-2.1s-1.54.84-1.54,2.1.6,2.1,1.54,2.1,1.52-.84,1.52-2.1Z"/><path class="cls-1" d="m299.03,26.79h.97l.1.83h.04c.54-.54,1.14-.97,1.94-.97,1.25,0,1.8.83,1.8,2.31v3.69h-1.19v-3.54c0-1.03-.31-1.44-1.01-1.44-.56,0-.94.28-1.46.8v4.17h-1.19v-5.86Z"/><path class="cls-1" d="m305.32,31.1c0-1.32,1.08-1.93,3.53-2.21-.01-.66-.28-1.26-1.14-1.26-.62,0-1.2.26-1.7.58l-.44-.82c.6-.38,1.43-.76,2.36-.76,1.44,0,2.11.92,2.11,2.48v3.53h-.98l-.08-.67h-.05c-.55.46-1.16.82-1.87.82-1.01,0-1.73-.65-1.73-1.69Zm3.53.04v-1.4c-1.78.22-2.38.61-2.38,1.28,0,.58.41.8.94.8s.95-.23,1.44-.68Z"/><path class="cls-1" d="m311.79,31.28v-7.14h1.19v7.21c0,.34.13.43.29.43.06,0,.11,0,.2-.02l.16.89c-.16.07-.36.12-.65.12-.86,0-1.19-.55-1.19-1.49Z"/><path class="cls-1" d="m263.91,58.09h-8.25v-3.03l6.96-11.46h5.4v11.13h2.19v3.36h-2.19v4.56h-4.11v-4.56Zm0-3.36v-3.09c0-1.23.12-3.06.18-4.26h-.12c-.48,1.05-1.02,2.13-1.56,3.21l-2.52,4.14h4.02Z"/><path class="cls-1" d="m280.8,47.32h-8.55v-3.72h13.26v2.7c-4.53,5.4-5.31,8.91-5.64,16.35h-4.44c.36-6.33,1.65-10.29,5.37-15.33Z"/><path class="cls-1" d="m287.55,48.91c0-3.9,2.04-6.18,4.86-6.18s4.89,2.28,4.89,6.18-2.07,6.24-4.89,6.24-4.86-2.31-4.86-6.24Zm6.66,0c0-2.79-.81-3.72-1.8-3.72s-1.8.93-1.8,3.72.81,3.78,1.8,3.78,1.8-.99,1.8-3.78Zm9.42-6.18h2.55l-10.56,20.28h-2.55l10.56-20.28Zm-1.65,14.04c0-3.9,2.04-6.18,4.86-6.18s4.89,2.28,4.89,6.18-2.07,6.24-4.89,6.24-4.86-2.31-4.86-6.24Zm6.66,0c0-2.79-.81-3.72-1.8-3.72s-1.8.93-1.8,3.72.81,3.78,1.8,3.78,1.8-.99,1.8-3.78Z"/></svg>