<svg width="51" height="51" viewBox="0 0 51 51" fill="none" xmlns="http://www.w3.org/2000/svg">
<path d="M46.7499 20.2422L11.7504 25.2084" stroke="#007C92" stroke-width="5.05" stroke-linecap="round" stroke-linejoin="round"/>
<path d="M17.8875 15.1502C19.9793 15.1502 21.675 13.4545 21.675 11.3627C21.675 9.27092 19.9793 7.5752 17.8875 7.5752C15.7957 7.5752 14.1 9.27092 14.1 11.3627C14.1 13.4545 15.7957 15.1502 17.8875 15.1502Z" fill="#007C92" stroke="#007C92" stroke-width="5.05" stroke-linecap="round" stroke-linejoin="round"/>
<path d="M41.875 12.6252C43.2695 12.6252 44.4 11.4947 44.4 10.1002C44.4 8.70568 43.2695 7.5752 41.875 7.5752C40.4805 7.5752 39.35 8.70568 39.35 10.1002C39.35 11.4947 40.4805 12.6252 41.875 12.6252Z" fill="#007C92" stroke="#007C92" stroke-width="5.05" stroke-linecap="round" stroke-linejoin="round"/>
<path d="M20.7912 40.8744L28.2644 31.5329C28.7699 30.9011 29.7307 30.9011 30.2362 31.5329L37.7094 40.8744C38.3707 41.7011 37.7821 42.9254 36.7237 42.9254H21.7772C20.7184 42.9254 20.1299 41.7008 20.7912 40.8744Z" fill="#007C92" stroke="#007C92" stroke-width="5.05" stroke-linecap="round" stroke-linejoin="round"/>
</svg>
