<svg width="64" height="45" viewBox="0 0 64 45" fill="none" xmlns="http://www.w3.org/2000/svg">
<path d="M25.9074 42.127C25.3595 42.127 24.8065 42.0234 24.2762 41.8113L19.3651 39.8595C17.6708 39.1879 16.5775 37.5744 16.5775 35.7539V28.9263H20.365V35.7539C20.365 36.0139 20.5216 36.2437 20.764 36.3397L25.6751 38.2915C25.9251 38.39 26.2129 38.3218 26.3897 38.1122L30.5963 33.1178L33.4925 35.5569L29.2833 40.5539C28.4248 41.5715 27.18 42.127 25.9074 42.127Z" fill="#007C92"/>
<path d="M43.0876 5.0498C42.373 5.0498 41.5751 5.272 41.0247 5.48915C40.4742 5.7063 32.1821 8.9888 27.9401 10.7058C23.7183 12.4152 19.494 14.1247 14.9111 15.8997C13.7875 16.334 12.8709 17.2329 12.3988 18.3667C11.8256 19.7377 11.5226 21.2452 11.5226 22.7248C11.5226 24.2423 11.8256 25.7245 12.419 27.1335C12.8937 28.252 13.7774 29.1105 14.8859 29.5398C14.8859 29.5398 40.4894 39.7458 41.002 39.9504C41.5145 40.1549 42.3629 40.3998 43.0826 40.3998C48.1199 40.3998 51.9201 32.8021 51.9201 22.7248C51.9201 12.6475 48.1199 5.0498 43.0826 5.0498H43.0876ZM43.0876 36.6123C41.0297 36.6123 38.0376 31.2012 38.0376 22.7248C38.0376 14.2484 41.0297 8.8373 43.0876 8.8373C45.1455 8.8373 48.1376 14.2484 48.1376 22.7248C48.1376 31.2012 45.1455 36.6123 43.0876 36.6123Z" fill="#007C92"/>
<path d="M45.6125 22.7245C45.6125 20.6338 43.9157 18.937 41.825 18.937C41.6912 18.937 41.565 18.9623 41.4337 18.9774C41.2872 20.1187 41.1938 21.3635 41.1938 22.7245C41.1938 24.0855 41.2872 25.3303 41.4337 26.4716C41.565 26.4842 41.6912 26.512 41.825 26.512C43.9157 26.512 45.6125 24.8152 45.6125 22.7245Z" fill="#007C92"/>
</svg>
