<?xml version="1.0" encoding="utf-8"?>
<!-- Generator: Adobe Illustrator 28.0.0, SVG Export Plug-In . SVG Version: 6.00 Build 0)  -->
<svg version="1.1" id="Layer_1" xmlns="http://www.w3.org/2000/svg" xmlns:xlink="http://www.w3.org/1999/xlink" x="0px" y="0px"
	 viewBox="0 0 25.8 15.6" style="enable-background:new 0 0 25.8 15.6;" xml:space="preserve">
<style type="text/css">
	.st0{fill:#FFFFFF;}
</style>
<g>
	<path class="st0" d="M6.5,4.1c0.5-1.2,1-2,2.1-2.9L8.3,0.6L8,0C4.3,0.9,0,4,0,9.7l0,0v0.1c0,3.2,2.6,5.8,5.7,5.8s5.7-2.6,5.7-5.8
		C11.5,6.8,9.3,4.4,6.5,4.1"/>
	<path class="st0" d="M20.8,4.1c0.5-1.2,1-2,2.1-2.9l-0.3-0.6L22.3,0c-3.7,0.9-8,4-8,9.7l0,0v0.1c0,3.2,2.6,5.8,5.7,5.8
		s5.7-2.6,5.7-5.8C25.8,6.8,23.6,4.4,20.8,4.1"/>
</g>
</svg>
