<?xml version="1.0" encoding="UTF-8"?><svg id="Layer_1" xmlns="http://www.w3.org/2000/svg" viewBox="0 0 187.79 81.68"><defs><style>.cls-1{fill:#797979;stroke-width:0px;}</style></defs><path class="cls-1" d="m72.5,22.09c.53-2.97,3.02-4.65,4.59-6.94,1.43-2.1,2.99-4.1,4.39-6.22,1.2-1.81,3.24-3.88,2.08-5.94-1.49-2.65-4.14-.27-6.01.09-5.85,1.13-11.44,3.35-16.87,5.86-1.02.47-2.16,1.28-2.79-.23-.59-1.4.61-1.63,1.69-2.17,5.94-2.96,12.51-4.09,18.62-6.54h5.76c.85,1.61,2.56,2.87,1.55,5.15-2.95,6.74-7.11,12.49-13.1,16.86l.08.08Z"/><path class="cls-1" d="m163.57,21.07c1.86,0,3.03.24,4.07-.05,2.51-.69,4.64-1.98,7.21.72,1.21,1.27,4.19.3,6.34-.67,4-1.8,6.26-.2,6.58,4.22.18,2.51-.72,4.71-1.72,6.84-10.85,23.04-27.24,40.06-52.14,47.79-3.18.99-6.37,2.23-9.75,1.58-5.89-1.14-8.27-6.09-5.61-11.6.89-1.85,1.88-3.79,3.28-5.25,10.27-10.69,21.44-20.12,36.34-23.65,5.45-1.29,11.02-1.47,16.54-.16,1.61.38,3.17.75,4.26-.97,2.74-4.31,5.4-8.66,6.47-13.76.33-1.57.14-3.45-1.82-2.92-5.01,1.34-9.74,1.04-14.93.65-5.43-.4-11.68,0-17.42,2.08-5.77,2.09-12.06.2-18.08,1-.47.06-.99.08-1.42-.07-.71-.24-1.02-1.01-.61-1.51,1.79-2.23,4.29-3.6,6.7-5.01.59-.35,1.13.76.93,1.27-1.31,3.29.52,2.2,2.33,1.94,2.13-.3,4.65-4.79,6.49.35,4.06-.63,7.98-1.55,11.34-4.15,2.77-2.14,5.57-4.24,8.5-6.14.67-.44,1.84-1.95,2.79-.39.66,1.07-.04,2.14-.96,2.93-1.67,1.44-3.34,2.88-5.71,4.92Zm13.09,22.67c-5.34-1.64-10.12-1.45-15.11-.62-17.25,2.88-29.51,13.16-39.88,26.28-1.44,1.82-3.22,4.23-1.33,6.98,1.97,2.86,5.02,2.93,7.77,2.24,20.58-5.15,37.19-15.93,48.55-34.89Z"/><path class="cls-1" d="m101.46,34.55c-2.73,2.16-4.39,3.46-6.02,4.78-6.46,5.2-11.35,11.58-14.32,19.37-.48,1.25-1.74,2.66-.31,3.95,1.65,1.49,2.51-.45,3.56-1.16,14.69-9.94,27.06-22.47,39.21-35.25.88-.92,1.68-1.91,2.47-2.92.12-.16-.06-.56-.1-.9-1.44-.58-2.27.78-3.4,1.13-.82.25-1.52,1.5-2.43.44-1.09-1.28.15-2.22.98-2.64,8.67-4.4,16.85-9.47,23.3-17.2,1.93,2.9-.18,3.94-1.22,4.97-15.92,15.83-30.37,33.16-47.96,47.29-3.6,2.89-7.26,5.71-11.08,8.29-3.29,2.22-5.72.79-5.92-3.22-.03-.64-.09-1.31.08-1.91,2.54-8.7,14.16-22.69,23.17-25.02Z"/><path class="cls-1" d="m72.42,22.01c-3.56,6.8-9.49,11.56-15.19,16.19-13.11,10.66-27.99,17.92-44.8,20.95-4.26.77-8.17.29-10.84-3.1-2.7-3.42-1.52-7.29.38-10.81,8.43-15.6,26.76-25.03,45.05-22.86-4.49,2.16-9.03,1.52-13.24,2.56-11.68,2.9-21.63,8.28-28.35,18.65-.69,1.07-1.39,2.15-1.91,3.3-2.85,6.34-.5,9.97,6.44,9.72,9.58-.35,18.27-3.98,26.88-7.72,12.71-5.52,22.96-14.34,32.24-24.41.99-1.07,1.85-2.2,3.42-2.41,0,0-.08-.08-.08-.08Z"/><path class="cls-1" d="m82.8,17.44c.51,2.12-1.7,2.68-1.44,4.25,1.55,1.13,2.64-.4,3.92-.74,1.7-.46,3.58-3.01,4.76.64.08.24.95.48,1.29.34,3.64-1.47,7.54-1.32,11.19-1.92,4.13-.68,7.28.6,10.85,1.15.95.14,1.44.69,1.34,1.6-.14,1.34-1.32,1.53-2.14,1.18-4.61-1.99-9.8,2.01-14.28-1.47-1.06-.83-1.99.63-3.08.78-2.69.36-5.22,4.59-8.24.24-.22-.31-2.72,1.01-4.19,1.49-1.57.52-3.27,2.02-4.74.1-1.38-1.8.14-3.28,1.05-4.69.84-1.3,1.79-2.59,3.69-2.94Z"/></svg>