<?xml version="1.0" encoding="UTF-8"?><svg id="Layer_1" xmlns="http://www.w3.org/2000/svg" viewBox="0 0 202.15 57.76"><defs><style>.cls-1{fill:#797979;stroke-width:0px;}</style></defs><path class="cls-1" d="m36.83,28.74c1.82-1.91,3.56-3.91,5.52-5.67.65-.58,1.85-1.63,2.79-.68.81.83.29,1.92-.49,2.83-.71.83-1.19,1.85-1.9,2.99,1.71-.09,2.41-1.16,3.37-1.89.98-.75,2.21-1.79,3.41-.59,1.1,1.1.15,2.1-.67,3.01-.31.35-.36.92-.63,1.7,2.08-.78,3.51-2.03,4.87-3.43.57-.59,1.15-1.55,2.11-1,1.01.57.24,1.4.08,2.2-.47,2.37-1.21,4.98,2.63,5.42-1.75,1.33-2.41,1.53-3.28,1.09-1.99-1-1.34-2.94-1.56-4.72-2.05.14-2.78,2.32-4.5,2.73-.84.2-1.49,1.44-2.54.51-.87-.77-.7-1.75-.36-2.65.15-.4.44-.71.18-1.17-1.29.06-1.94,1.11-2.83,1.81-.95.74-1.96,2.07-3.24,1.37-1.59-.87-.62-2.39-.02-3.76-1.76.11-1.73,1.91-2.93,2.31-.75.25-1.12,1.51-2.14,1.01-1.08-.52-.95-1.66-.79-2.57.35-1.95.81-3.89,1.36-5.8.25-.87,1.22-2.12-.28-2.18-1.37-.05-3.29-2.04-4.23.27-1.92,4.74-5.16,8.65-7.61,13.02-1.09,1.95-1.91,1.87-2.81.83-1.79-2.08-2.71-.56-3.56.64-3.58,5.01-7.69,9.55-12.03,13.9-1.06,1.06-2.19,2.04-3.57,1.04-1.1-.8-1.39-2.01-1.09-3.65,1.29-7.19,5.13-13.07,9.39-18.68,1.39-1.83,1.29-3.06.42-4.82-2.28-4.6-4.62-9.17-5.1-14.45-.24-2.68-.32-5.34,1.68-7.3C9.07-.11,12.5-.53,15.72.57c5.29,1.81,8.9,5.42,9.83,11.22.11.65-.42,1.62.67,1.86,1.04.23,1.85-.44,2.46-1.09.87-.93,1.18-2.69,3.09-1.47,1.63,1.04,1.57,2.56,1.38,4.16-.01.1-.11.19-.12.29-.16,1.29-1.93,2.96.06,3.77,1.99.81,4.08-.09,5.18-2.06,2.35-4.17,5.04-8.07,8.41-11.47,3.11-3.14,6.59-4.33,7.79-2.48,1.92,2.95-.61,5.21-2.08,7.32-2.54,3.63-6.34,6.02-10.25,7.74-4.71,2.06-5.01,6-5.3,10.38Zm-13.22-15.6c.02-5.7-3.57-10.2-8.92-10.89-6.25-.81-8.44,1.82-8.23,6.74.22,5.2,2.48,10.1,4.96,14.77.8,1.5,1.42,1.17,2.29.22,1.93-2.12,4.24-3.84,6.3-5.8,1.51-1.44,4.61-2.07,3.59-5.03ZM2.66,49.02c.34-.29.72-.65,1.15-.96,4.09-2.97,6.95-7.07,10.17-10.86,2.99-3.53,2.95-4.33-.21-7.43-1.05-1.03-1.72-1.24-2.71.02-4.2,5.35-7.4,11.21-9.21,17.79-.15.54-.33,1.34.82,1.44Zm20.3-30.69c-2.87,2.08-5.33,4.07-7.48,6.43-.69.76-2.08,1.49-1.39,2.58.89,1.4,2.3,2.47,3.53,3.64.08.08.66-.13.75-.33,1.8-3.89,4.29-7.54,4.59-12.32Zm18.19-1.75c4.12-2.33,8.68-4.1,10.8-8.91.39-.89,1.7-1.89.84-2.67-.99-.89-2.17.26-3.01.95-3.58,2.93-6.36,6.53-8.63,10.63Zm-17.59,8.04c.19.04.38.09.56.13,1.34-2.13,2.65-4.28,4.04-6.37.67-1.01.33-2.04-.41-2.43-.81-.43-1.87.15-2.16,1.13-.75,2.49-1.37,5.02-2.04,7.54Zm4.71-1.37c-2.11,2.02-3.99,4.12-4.11,7.15,1.37-2.38,2.74-4.77,4.11-7.15Z"/><path class="cls-1" d="m201.83,31c-1-1.23-2.08-1.56-3.61-.73-2.95,1.61-6,3.04-9.67,4.87.63-1.71-.23-2.57-.55-3.55-1.22-3.74-3.51-4.37-7.09-2.83-1.86.8-3.97,2.7-6.18-.12-.8-1.02-2.78-1.73-4.37-1.28-1.11.32-1.98.35-2.96-.17-5.61-2.99-11.39-2.81-17.24-.83-1.25.43-2.46,1-3.69,1.51-.17-.23-.35-.45-.52-.68.37-.16.81-.24,1.1-.49,1.21-1.05,2.63-2.32,1.44-3.96-1.17-1.62-2.9-.53-3.95.32-2.22,1.76-4.43,2.84-7.32,2.01-.55-.16-1.22.16-1.85.2-.86.06-1.75.13-2.31-.73-1.01-1.56-2.17-1.01-3.6-.57-2.65.83-4.53,3.23-7.45,3.8.06-1.55,1.1-2.15,1.89-2.73,1.11-.83,2.9-1.45,1.43-3.03-1.42-1.52-2.61.55-3.23,1.26-2.2,2.54-4.82,2.87-8.66,2.42,1.12-.27,1.41-.4,1.7-.39,2.05.04,3.76-.64,4.85-2.45.49-.82.2-1.52-.45-2.27-1.66-1.91-3.44-.76-5.28-.51-1.38.19-1.91,1.23-2.82,1.92-.65.49-.38,2.32-1.79,1.52-1.21-.68-.04-1.81.18-2.55,1.79-6.02,3.47-12.09,6.39-17.7.39-.75,1.07-1.51.14-2.22-.43-.33-1.19-.79-1.71-.11-.44.57-.75,1.27-.97,1.96-2.1,6.33-6.37,11.27-10.41,16.36-1.62,2.04-3.16,2.07-4.4-.3-1.35-2.6-3.06-.92-3.57.13-1.84,3.81-5.52,5.37-8.7,8.35.22-3.7,2.95-5.36,4.16-7.85.33-.67,1.56-1.06.53-2.09-.92-.92-1.41-.1-2.12.38-5,3.34-10.05,6.61-15.07,9.92-.74.49-1.55.99-2.38.58-.97-.47-.64-1.58-.48-2.29.57-2.55.95-5.26,2.14-7.53,1.3-2.48,2.73-5.31,6.87-3.71,2.31.89,5.11-.25,7.33-1.39,1.71-.88,3.26-2.88,2.38-4.88-.98-2.21-3.19-2.5-5.46-1.46-2.21,1.01-4.28,2.21-6.24,3.65-1.09.8-2.25,1.46-3.74.44-2.09-1.43-4.31-2.63-5.53-5.04-.25-.5-.28-2.11-1.63-1.09-1.01.76-.09,1.54.29,2.13,1.26,1.98,3.14,3.32,5.04,4.66.87.61,2.45,1.16,1.01,2.94-2.44,3.01-3.55,6.57-4.17,10.41-.32,1.99-.32,3.76,1.18,4.88,1.41,1.06,3.04.14,4.41-.78,3.62-2.42,7.24-4.84,11.6-7.75-1.04,2.21-1.7,3.59-2.34,4.98-.56,1.22-.92,2.85,0,3.6,1.09.89,2.33-.33,3.3-1.13,2.06-1.69,4.1-3.4,6.16-5.11.63.95-.03,1.32-.06,1.8-.06,1.12-.71,2.61.38,3.26,1.29.77,2.37-.37,3.27-1.34.22-.24.44-.47.68-.68,3.48-3.12,3.61-3.09,6.71.47,1.1,1.27,2.19,2.21,3.14-.28.35-.93,1.18-2.71,2.47-1.36,2.62,2.73,5.62,2.25,8.77,1.53.17,1.28-1.25,2.45.16,3.39,1.34.89,2.36.14,3.43-.71.98-.79,2.08-1.45,3.18-2.06,1.5-.82,2.85-2.14,4.91-1.87-.1.46-.09.79-.24,1.03-.61.97-2.64,1.78-1.25,3.02,1.23,1.11,2.28-.13,3.16-1.46.86-1.3,2.54-1.87,4.13-2.04.88-.09,2.11-.53,2.66.49.78,1.44-1.01,1.22-1.48,1.88-.38.55-1.39.78-.82,1.79.58,1.04,1.22.64,2.11.37,3.95-1.21,8.35-.61,11.97-3.26-.05.52-.14.81-.35.98-1.08.91-1.76,2.03-.92,3.32.93,1.42,2.17.59,3.42.24,2.63-.76,4.97-1.93,6.41-4.31.5-.82.99-1.01,1.76-.91,1.32.18,3.28-.71,3.79.81.58,1.7-1.76,1.01-2.5,1.85-.47.53-1.46.87-1.32,1.6.19,1.01,1.16.88,2.06.95,2.26.16,3.81-1,5.37-2.34,1.5-1.28,3.64-1.73,4.27.25.9,2.85,2.42,2.1,4.15,1.57,1.51-.46,3.22-.71,4.42-1.61,2.58-1.94,3.61-.26,4.49,1.63.93,1.99,1.49,3.93-1.28,5.3-2.72,1.35-5.25,3.08-7.81,4.73-2.21,1.42-4.35,2.95-5.92,5.11-2.28,3.13-1.41,8.74,1.57,10.09,2.65,1.2,7.78.47,9.74-1.66,3.61-3.92,6.19-8.71,6.04-13.9-.13-4.35,2.12-6.01,5.15-7.05,2.52-.87,4.5-3.71,7.8-2.32.79.33.8-.67.33-1.26ZM85.59,8.78c.66-.33,1.61-.47,2.07.16.61.82-.02,1.56-.67,2.16-2.1,1.91-4.61,2.14-7.91,1.83,2.16-2.27,4.41-3.1,6.52-4.14Zm11.22,17.38c-.27.14-1.09.34-1.01-.5.08-.84.03-1.44.36-1.94s.82-.74.82-.74c0,0,.38.36.66.47.27.11,1.07.41,1.07.41,0,0-1.61,2.16-1.89,2.3Zm10.41-3.72c-.23.66-.42,1.66-1.39,1.19-.81-.4-2.07.28-2.46-1-.27-.9.47-1.32.93-1.88,1.67-2.02,3.32-4.05,4.98-6.08.17.06.35.11.52.17-.86,2.54-1.71,5.08-2.58,7.61Zm7.09-.49s3.85-.96,3.86.44c0,1.97-5.77,1.29-5.77,1.29.38-1.09,1.92-1.72,1.92-1.72Zm30.4,4.32c-.27.27-.82.82-1.18.61-.36-.22-.03-.93.49-1.45.3-.3,1.14-.9,1.56-.77.41.14-.6,1.34-.87,1.61Zm11.98,2.68c-.22.27-.82.79-1.78,1.34s-2.79,1.04-3.37.63,1.25-1.78,1.89-2.11c1.01-.52,1.59-.98,3.26-.63.29.06.22.49,0,.77Zm25.12,24.11c-1.55,2.21-4.16,2.85-6.69,3.02-2.36.16-4-2.38-3.41-4.87.44-1.87,1.2-3.54,2.72-4.86,3.67-3.2,7.98-5.38,12.35-8.26.35,6.15-1.98,10.71-4.97,14.97Z"/></svg>