<svg width="46" height="46" viewBox="0 0 46 46" fill="none" xmlns="http://www.w3.org/2000/svg">
<g clip-path="url(#clip0_2_142)">
<path d="M39.4354 26.6489C38.9506 26.6489 38.4657 26.4646 38.0946 26.0934C37.3573 25.3536 37.3573 24.1542 38.0946 23.4144L38.789 22.72L37.5239 21.2379C37.0947 20.7 36.9911 19.9703 37.2537 19.3315L38.1728 17.112C38.4354 16.4732 39.0263 16.0288 39.7131 15.953L41.7129 15.7308L41.6599 14.4911L39.7181 14.3396C39.0313 14.2638 38.4405 13.8194 38.1779 13.1806L37.2588 10.9611C36.9962 10.3248 37.0997 9.59256 37.529 9.05473L38.7864 7.48418L37.8724 6.65346L36.3902 7.91596C35.8498 8.34773 35.1151 8.45126 34.4838 8.18613L32.2643 7.26703C31.6255 7.00443 31.1811 6.41358 31.1054 5.72678L30.8832 3.72698L29.651 3.78506L29.4944 5.72678C29.4187 6.41358 28.9743 7.00443 28.3355 7.26703L26.116 8.18613C25.4822 8.45126 24.7474 8.34521 24.2096 7.91596L22.639 6.65851L22.0305 7.35036C21.2907 8.09018 20.0913 8.09018 19.3515 7.35036C18.6117 6.61053 18.6117 5.41116 19.3515 4.67133L20.0484 3.97443C21.3917 2.63366 23.5203 2.51751 24.9999 3.69921L25.6994 4.25976L25.8508 4.19663L25.9493 3.31036C26.1589 1.42166 27.7522 -0.00244141 29.651 -0.00244141H30.9488C32.8476 -0.00244141 34.4384 1.41913 34.6505 3.30783L34.749 4.19663L34.9004 4.25976L35.5973 3.70173C37.0795 2.51751 39.2106 2.63113 40.5539 3.97443L41.473 4.89353C42.8138 6.23936 42.93 8.36793 41.7483 9.84758L41.1877 10.547L41.2508 10.6985L42.1371 10.797C44.0258 11.0066 45.4499 12.5998 45.4499 14.4986V15.7965C45.4398 17.7003 44.0157 19.286 42.1371 19.4956L41.2483 19.5941L41.1852 19.7456L41.7432 20.4425C42.9299 21.9221 42.8138 24.0532 41.4705 25.3965L40.7736 26.0934C40.405 26.4621 39.9202 26.6489 39.4354 26.6489Z" fill="#007C92"/>
<path d="M33.176 24.4873L30.5096 24.1919L29.285 21.2326L30.9616 19.1368C31.7367 18.1672 31.661 16.7684 30.7798 15.8897L29.5551 14.6651C28.6764 13.7838 27.2776 13.7081 26.308 14.4833L24.2122 16.1599L21.2504 14.9352L20.9525 12.2688C20.8136 11.0316 19.7708 10.0999 18.5285 10.0999H17.6725H16.8165C15.5742 10.0999 14.5314 11.0341 14.3925 12.2688L14.0946 14.9352L11.1327 16.1599L9.03697 14.4833C8.06738 13.7081 6.66853 13.7838 5.78982 14.6651L4.5652 15.8897C3.6865 16.7684 3.60822 18.1672 4.3834 19.1368L6.06 21.2326L4.83538 24.1919L2.16898 24.4873C0.931725 24.6262 0 25.6715 0 26.9113V28.6409C0 29.8832 0.93425 30.9261 2.16898 31.0649L4.83538 31.3604L6.06 34.3197L4.3834 36.4154C3.60822 37.385 3.68397 38.7839 4.5652 39.6626L5.78982 40.8872C6.66853 41.7684 8.06738 41.8442 9.03697 41.069L11.1327 39.3924L14.0946 40.617L14.3925 43.2834C14.5314 44.5207 15.5742 45.4524 16.8165 45.4524H17.6725H18.5285C19.7708 45.4524 20.8136 44.5181 20.9525 43.2834L21.2504 40.617L24.2122 39.3924L26.308 41.069C27.2776 41.8442 28.6764 41.7684 29.5551 40.8872L30.7798 39.6626C31.6584 38.7839 31.7367 37.385 30.9616 36.4154L29.285 34.3197L30.5096 31.3604L33.176 31.0649C34.4132 30.9261 35.345 29.8807 35.345 28.6409V26.9113C35.345 25.669 34.4107 24.6262 33.176 24.4873ZM17.675 32.8249C14.8849 32.8249 12.625 30.5625 12.625 27.7749C12.625 24.9873 14.8849 22.7249 17.675 22.7249C20.4651 22.7249 22.725 24.9873 22.725 27.7749C22.725 30.5625 20.4651 32.8249 17.675 32.8249Z" fill="#007C92"/>
</g>
<defs>
<clipPath id="clip0_2_142">
<rect width="45.45" height="45.45" fill="white"/>
</clipPath>
</defs>
</svg>
