<?xml version="1.0" encoding="utf-8"?>
<!-- Generator: Adobe Illustrator 28.0.0, SVG Export Plug-In . SVG Version: 6.00 Build 0)  -->
<svg version="1.1" id="Layer_1" xmlns="http://www.w3.org/2000/svg" xmlns:xlink="http://www.w3.org/1999/xlink" x="0px" y="0px"
	 viewBox="0 0 51.1 256.9" style="enable-background:new 0 0 51.1 256.9;" xml:space="preserve">
<style type="text/css">
	.st0{fill:#8C1515;}
</style>
<path class="st0" d="M46.4,69.2c2.9-3,4.7-7,4.7-11.4c0-4.4-1.7-8.4-4.6-11.3L0,0v256.9l33.5-33.5c3-2.9,4.8-7,4.8-11.5
	s-1.8-8.4-4.7-11.3l-14-14c-2.9-2.9-4.7-6.9-4.7-11.3s1.8-8.4,4.7-11.3l1.5-1.5c3-2.9,4.9-7,4.9-11.6c0-4.6-1.8-8.4-4.6-11.3
	l-11.2-11.2c-3-2.9-4.8-6.9-4.8-11.4s1.8-8.6,4.8-11.5L46.4,69.2z"/>
</svg>
