<?xml version="1.0" encoding="UTF-8"?><svg id="Layer_1" xmlns="http://www.w3.org/2000/svg" viewBox="0 0 360 180.55"><defs><style>.cls-1{fill:#620059;}.cls-1,.cls-2,.cls-3,.cls-4,.cls-5,.cls-6,.cls-7,.cls-8,.cls-9{stroke-width:0px;}.cls-2{fill:#797979;}.cls-3{fill:#279989;}.cls-4{fill:#231f20;}.cls-5{fill:#e04f39;}.cls-6{fill:#8c1515;}.cls-7{fill:#fff;}.cls-8{fill:#e98300;}.cls-9{fill:#007c92;}</style></defs><rect class="cls-9" x="1" y="2.74" width="257.74" height="22.15"/><rect class="cls-8" x="1" y="28.38" width="71.59" height="22.15"/><rect class="cls-5" x="1" y="54.01" width="343.65" height="22.15"/><rect class="cls-3" x="1" y="79.64" width="229.1" height="22.15"/><rect class="cls-1" x="1" y="105.28" width="272.06" height="22.15"/><rect class="cls-2" x="1" y="130.91" width="286.37" height="22.15"/><rect class="cls-6" x="1" y="156.54" width="85.91" height="22.15"/><path class="cls-4" d="m96.6,170.88l.56-.65c.56.59,1.37.95,2.21.95,1.03,0,1.64-.52,1.64-1.28s-.56-1.06-1.31-1.39l-1.13-.49c-.76-.32-1.59-.89-1.59-2.03,0-1.2,1.03-2.09,2.47-2.09.96,0,1.78.4,2.33.95l-.54.65c-.49-.43-1.09-.72-1.79-.72-.88,0-1.46.44-1.46,1.15,0,.75.68,1.04,1.31,1.31l1.12.48c.94.4,1.62.93,1.62,2.1,0,1.25-1.01,2.24-2.67,2.24-1.13,0-2.07-.44-2.76-1.17Z"/><path class="cls-4" d="m103.4,169.77v-3.69h1v3.56c0,1.09.32,1.56,1.09,1.56.6,0,1.02-.3,1.57-.98v-4.14h.98v5.83h-.82l-.08-.91h-.04c-.54.64-1.12,1.05-1.92,1.05-1.24,0-1.79-.79-1.79-2.28Z"/><path class="cls-4" d="m109.37,171.21l.46-.58c.5.42,1.03.65,1.75.65.77,0,1.15-.41,1.15-.91,0-.6-.66-.85-1.32-1.09-.88-.31-1.71-.73-1.71-1.69s.74-1.66,2.01-1.66c.72,0,1.36.28,1.81.66l-.46.56c-.41-.29-.83-.46-1.36-.46-.73,0-1.07.4-1.07.84,0,.53.52.74,1.24,1,.91.32,1.8.72,1.8,1.78,0,.95-.76,1.74-2.13,1.74-.85,0-1.63-.31-2.17-.84Z"/><path class="cls-4" d="m114.97,170.07v-3.19h-.86v-.74l.91-.06.12-1.87h.83v1.87h1.57v.8h-1.57v3.21c0,.71.23,1.12.9,1.12.2,0,.43-.04.66-.14l.2.7c-.31.16-.7.25-1.09.25-1.25,0-1.67-.78-1.67-1.94Z"/><path class="cls-4" d="m118.24,170.4c0-1.31,1.1-1.92,3.6-2.2-.01-.73-.26-1.44-1.21-1.44-.67,0-1.28.31-1.74.6l-.38-.67c.54-.36,1.36-.76,2.29-.76,1.42,0,2.03.95,2.03,2.4v3.57h-.82l-.08-.7h-.04c-.58.47-1.2.84-1.93.84-.97,0-1.71-.6-1.71-1.65Zm3.6.08v-1.57c-1.97.23-2.63.67-2.63,1.43,0,.65.46.9,1.02.9s1.04-.25,1.61-.75Z"/><path class="cls-4" d="m124.49,164.23c0-.38.28-.65.66-.65s.66.26.66.65-.28.65-.66.65-.66-.25-.66-.65Zm.17,1.85h.98v5.83h-.98v-5.83Z"/><path class="cls-4" d="m127.61,166.08h.82l.08.84h.04c.55-.55,1.15-.98,1.96-.98,1.22,0,1.77.79,1.77,2.28v3.69h-.98v-3.56c0-1.09-.34-1.56-1.1-1.56-.6,0-1.01.31-1.6.9v4.22h-.98v-5.83Z"/><path class="cls-4" d="m133.8,170.4c0-1.31,1.1-1.92,3.6-2.2-.01-.73-.26-1.44-1.21-1.44-.67,0-1.28.31-1.74.6l-.38-.67c.54-.36,1.36-.76,2.29-.76,1.42,0,2.03.95,2.03,2.4v3.57h-.82l-.08-.7h-.04c-.58.47-1.2.84-1.93.84-.97,0-1.71-.6-1.71-1.65Zm3.6.08v-1.57c-1.97.23-2.63.67-2.63,1.43,0,.65.46.9,1.02.9s1.04-.25,1.61-.75Z"/><path class="cls-4" d="m141.13,171.31h-.04l-.08.6h-.79v-8.54h.98v2.33l-.02,1.06c.53-.47,1.18-.82,1.82-.82,1.51,0,2.31,1.16,2.31,2.96,0,1.99-1.19,3.15-2.52,3.15-.54,0-1.15-.28-1.67-.74Zm3.17-2.4c0-1.28-.43-2.15-1.54-2.15-.49,0-1.01.28-1.56.79v3.06c.52.44,1.04.61,1.43.61.96,0,1.67-.88,1.67-2.31Z"/><path class="cls-4" d="m146.69,164.23c0-.38.28-.65.66-.65s.66.26.66.65-.28.65-.66.65-.66-.25-.66-.65Zm.17,1.85h.98v5.83h-.98v-5.83Z"/><path class="cls-4" d="m149.81,170.71v-7.34h.98v7.41c0,.31.13.42.29.42.06,0,.11,0,.2-.02l.13.74c-.13.06-.32.1-.56.1-.74,0-1.04-.47-1.04-1.31Z"/><path class="cls-4" d="m152.7,164.23c0-.38.28-.65.66-.65s.66.26.66.65-.28.65-.66.65-.66-.25-.66-.65Zm.17,1.85h.98v5.83h-.98v-5.83Z"/><path class="cls-4" d="m155.99,170.07v-3.19h-.86v-.74l.91-.06.12-1.87h.83v1.87h1.57v.8h-1.57v3.21c0,.71.23,1.12.9,1.12.2,0,.43-.04.66-.14l.2.7c-.31.16-.7.25-1.09.25-1.25,0-1.67-.78-1.67-1.94Z"/><path class="cls-4" d="m159.29,174.3l.22-.77c.14.05.29.07.42.07.66,0,1.08-.53,1.32-1.25l.13-.43-2.34-5.84h1.02l1.19,3.23c.18.5.38,1.1.56,1.64h.05c.17-.53.34-1.13.49-1.64l1.04-3.23h.96l-2.19,6.31c-.41,1.15-1.01,2.03-2.18,2.03-.26,0-.49-.05-.68-.12Z"/><path class="cls-4" d="m167.39,168.28c0-2.84,1.48-4.13,3.08-4.13,1.01,0,1.74.42,2.22.91l-.92,1.06c-.26-.29-.74-.54-1.19-.54-.84,0-1.51.6-1.57,2.38.4-.5,1.06-.8,1.52-.8,1.31,0,2.27.74,2.27,2.35s-1.15,2.55-2.53,2.55c-1.48,0-2.88-1.1-2.88-3.78Zm1.66.88c.16,1.2.66,1.58,1.19,1.58s.96-.37.96-1.24c0-.8-.42-1.1-1-1.1-.4,0-.84.22-1.15.75Z"/><path class="cls-4" d="m173.54,166.42c0-1.56.82-2.47,1.94-2.47s1.95.91,1.95,2.47-.83,2.5-1.95,2.5-1.94-.92-1.94-2.5Zm2.66,0c0-1.12-.32-1.49-.72-1.49s-.72.37-.72,1.49.32,1.51.72,1.51.72-.4.72-1.51Zm3.77-2.47h1.02l-4.22,8.11h-1.02l4.22-8.11Zm-.66,5.61c0-1.56.82-2.47,1.94-2.47s1.96.91,1.96,2.47-.83,2.49-1.96,2.49-1.94-.92-1.94-2.49Zm2.66,0c0-1.12-.32-1.49-.72-1.49s-.72.37-.72,1.49.32,1.51.72,1.51.72-.4.72-1.51Z"/><path class="cls-7" d="m10.77,138.41h1.26l1.49,4.21c.18.54.35,1.04.53,1.63h.05c.17-.59.31-1.09.5-1.63l1.49-4.21h1.25v7.87h-.94v-4.33c0-.7.08-1.71.14-2.41h-.05l-.61,1.89-1.48,4.07h-.73l-1.48-4.07-.61-1.89h-.05c.07.7.14,1.71.14,2.41v4.33h-.91v-7.87Z"/><path class="cls-7" d="m18.96,143.36c0-1.9,1.3-3.06,2.64-3.06,1.5,0,2.31,1.08,2.31,2.73,0,.2-.01.4-.05.59h-3.9c.1,1.31.94,1.99,1.92,1.99.55,0,1.04-.17,1.45-.44l.36.65c-.52.35-1.14.6-1.93.6-1.57,0-2.81-1.13-2.81-3.06Zm1.03-.52h3.03c0-1.13-.52-1.74-1.42-1.74-.72,0-1.46.49-1.62,1.74Z"/><path class="cls-7" d="m24.93,143.37c0-1.89,1.2-3.07,2.53-3.07.67,0,1.12.25,1.63.67l-.05-1v-2.24h1v8.54h-.82l-.08-.68h-.04c-.46.44-1.08.83-1.76.83-1.46,0-2.41-1.1-2.41-3.05Zm4.11,1.42v-3.05c-.49-.44-.94-.61-1.42-.61-.94,0-1.68.9-1.68,2.23s.59,2.23,1.61,2.23c.54,0,1.01-.26,1.49-.8Z"/><path class="cls-7" d="m31.84,138.6c0-.38.28-.65.66-.65s.66.26.66.65-.28.65-.66.65-.66-.25-.66-.65Zm.17,1.85h.98v5.83h-.98v-5.83Z"/><path class="cls-7" d="m34.53,143.37c0-1.96,1.31-3.07,2.81-3.07.77,0,1.31.29,1.7.68l-.49.6c-.3-.28-.67-.47-1.18-.47-1.04,0-1.82.91-1.82,2.25s.73,2.23,1.81,2.23c.53,0,1.01-.23,1.35-.55l.43.6c-.48.47-1.13.77-1.87.77-1.56,0-2.75-1.12-2.75-3.05Z"/><path class="cls-7" d="m40.27,138.6c0-.38.28-.65.66-.65s.66.26.66.65-.28.65-.66.65-.66-.25-.66-.65Zm.17,1.85h.98v5.83h-.98v-5.83Z"/><path class="cls-7" d="m43.39,140.45h.82l.08.84h.04c.55-.55,1.15-.98,1.96-.98,1.22,0,1.77.79,1.77,2.28v3.69h-.98v-3.56c0-1.09-.34-1.56-1.1-1.56-.6,0-1.01.31-1.6.9v4.22h-.98v-5.83Z"/><path class="cls-7" d="m49.51,143.36c0-1.9,1.3-3.06,2.64-3.06,1.5,0,2.31,1.08,2.31,2.73,0,.2-.01.4-.05.59h-3.9c.1,1.31.94,1.99,1.92,1.99.55,0,1.04-.17,1.45-.44l.36.65c-.52.35-1.14.6-1.93.6-1.57,0-2.81-1.13-2.81-3.06Zm1.03-.52h3.03c0-1.13-.52-1.74-1.42-1.74-.72,0-1.46.49-1.62,1.74Z"/><path class="cls-7" d="m57.76,145.18c1.92-1.7,3.31-3.07,3.31-4.14,0-.74-.42-1.15-1.08-1.15-.55,0-.97.37-1.35.78l-.92-.91c.73-.83,1.45-1.25,2.52-1.25,1.5,0,2.52.96,2.52,2.41s-1.25,2.63-2.6,3.96c.4-.05.92-.1,1.27-.1h1.7v1.49h-5.36v-1.09Z"/><path class="cls-7" d="m64.1,142.44c0-2.59,1.09-3.92,2.72-3.92s2.72,1.33,2.72,3.92-1.09,3.98-2.72,3.98-2.72-1.39-2.72-3.98Zm3.78,0c0-2.09-.46-2.55-1.06-2.55s-1.06.47-1.06,2.55.47,2.61,1.06,2.61,1.06-.54,1.06-2.61Z"/><path class="cls-7" d="m70.3,140.78c0-1.56.82-2.47,1.94-2.47s1.95.91,1.95,2.47-.83,2.5-1.95,2.5-1.94-.92-1.94-2.5Zm2.66,0c0-1.12-.32-1.49-.72-1.49s-.72.37-.72,1.49.32,1.51.72,1.51.72-.4.72-1.51Zm3.77-2.47h1.02l-4.22,8.11h-1.02l4.22-8.11Zm-.66,5.61c0-1.56.82-2.47,1.94-2.47s1.96.91,1.96,2.47-.83,2.49-1.96,2.49-1.94-.92-1.94-2.49Zm2.66,0c0-1.12-.32-1.49-.72-1.49s-.72.37-.72,1.49.32,1.51.72,1.51.72-.4.72-1.51Z"/><path class="cls-7" d="m10.77,112.78h1v7.02h3.44v.85h-4.44v-7.87Z"/><path class="cls-7" d="m16.14,119.13c0-1.31,1.1-1.92,3.6-2.2-.01-.73-.26-1.44-1.21-1.44-.67,0-1.28.31-1.74.6l-.38-.67c.54-.36,1.36-.76,2.29-.76,1.42,0,2.03.95,2.03,2.4v3.57h-.82l-.08-.7h-.04c-.58.47-1.2.84-1.93.84-.97,0-1.71-.6-1.71-1.65Zm3.6.08v-1.57c-1.97.23-2.63.67-2.63,1.43,0,.65.46.9,1.02.9s1.04-.25,1.61-.75Z"/><path class="cls-7" d="m21.86,114.81h1.03l.85,3.37c.12.53.24,1.03.34,1.66h.05c.12-.62.24-1.13.37-1.66l.86-3.37h1.08l.88,3.37c.14.53.26,1.03.38,1.66h.05c.12-.62.23-1.13.35-1.66l.85-3.37h.96l-1.57,5.83h-1.28l-.78-3.12c-.14-.54-.24-1.04-.37-1.73h-.05c-.11.68-.23,1.2-.37,1.73l-.78,3.12h-1.22l-1.62-5.83Z"/><path class="cls-7" d="m33.44,119.22h1.66v-4.4h-1.43v-1.09c.83-.16,1.36-.37,1.9-.7h1.3v6.19h1.43v1.43h-4.85v-1.43Z"/><path class="cls-7" d="m39.45,119.88l.94-1.06c.25.29.73.54,1.18.54.85,0,1.51-.6,1.57-2.38-.4.5-1.06.8-1.52.8-1.29,0-2.27-.74-2.27-2.35s1.15-2.55,2.53-2.55c1.48,0,2.89,1.1,2.89,3.78,0,2.84-1.49,4.12-3.08,4.12-1.01,0-1.75-.43-2.23-.91Zm2.51-3.33c.4,0,.84-.22,1.14-.76-.16-1.2-.65-1.58-1.19-1.58s-.96.37-.96,1.24c0,.8.43,1.1,1.01,1.1Z"/><path class="cls-7" d="m45.58,115.15c0-1.56.82-2.47,1.94-2.47s1.95.91,1.95,2.47-.83,2.5-1.95,2.5-1.94-.92-1.94-2.5Zm2.66,0c0-1.12-.32-1.49-.72-1.49s-.72.37-.72,1.49.32,1.51.72,1.51.72-.4.72-1.51Zm3.77-2.47h1.02l-4.22,8.11h-1.02l4.22-8.11Zm-.66,5.61c0-1.56.82-2.47,1.94-2.47s1.96.91,1.96,2.47-.83,2.49-1.96,2.49-1.94-.92-1.94-2.49Zm2.66,0c0-1.12-.32-1.49-.72-1.49s-.72.37-.72,1.49.32,1.51.72,1.51.72-.4.72-1.51Z"/><path class="cls-7" d="m10.77,87.14h1v3.3h3.66v-3.3h1.01v7.87h-1.01v-3.71h-3.66v3.71h-1v-7.87Z"/><path class="cls-7" d="m18.41,92.87v-3.69h1v3.56c0,1.09.32,1.56,1.09,1.56.6,0,1.02-.3,1.57-.98v-4.14h.98v5.83h-.82l-.08-.91h-.04c-.54.64-1.12,1.05-1.92,1.05-1.24,0-1.79-.79-1.79-2.28Z"/><path class="cls-7" d="m25.03,89.18h.82l.08.84h.04c.5-.55,1.12-.98,1.81-.98.89,0,1.37.42,1.61,1.12.61-.66,1.21-1.12,1.92-1.12,1.2,0,1.78.79,1.78,2.28v3.69h-.98v-3.56c0-1.09-.35-1.56-1.08-1.56-.46,0-.92.3-1.46.9v4.22h-.98v-3.56c0-1.09-.35-1.56-1.09-1.56-.43,0-.92.3-1.46.9v4.22h-.98v-5.83Z"/><path class="cls-7" d="m34.6,93.5c0-1.31,1.1-1.92,3.6-2.2-.01-.73-.26-1.44-1.21-1.44-.67,0-1.28.31-1.74.6l-.38-.67c.54-.36,1.36-.76,2.29-.76,1.42,0,2.03.95,2.03,2.4v3.57h-.82l-.08-.7h-.04c-.58.47-1.2.84-1.93.84-.97,0-1.71-.6-1.71-1.65Zm3.6.08v-1.57c-1.97.23-2.63.67-2.63,1.43,0,.65.46.9,1.02.9s1.04-.25,1.61-.75Z"/><path class="cls-7" d="m41.02,89.18h.82l.08.84h.04c.55-.55,1.15-.98,1.96-.98,1.22,0,1.77.79,1.77,2.28v3.69h-.98v-3.56c0-1.09-.34-1.56-1.1-1.56-.6,0-1.01.31-1.6.9v4.22h-.98v-5.83Z"/><path class="cls-7" d="m47.42,87.33c0-.38.28-.65.66-.65s.66.26.66.65-.28.65-.66.65-.66-.25-.66-.65Zm.17,1.85h.98v5.83h-.98v-5.83Z"/><path class="cls-7" d="m50.71,93.17v-3.19h-.86v-.74l.91-.06.12-1.87h.83v1.87h1.57v.8h-1.57v3.21c0,.71.23,1.12.9,1.12.2,0,.43-.04.66-.14l.2.7c-.31.16-.7.25-1.09.25-1.25,0-1.67-.78-1.67-1.94Z"/><path class="cls-7" d="m54.43,87.33c0-.38.28-.65.66-.65s.66.26.66.65-.28.65-.66.65-.66-.25-.66-.65Zm.17,1.85h.98v5.83h-.98v-5.83Z"/><path class="cls-7" d="m57.1,92.1c0-1.9,1.3-3.06,2.64-3.06,1.5,0,2.31,1.08,2.31,2.73,0,.2-.01.4-.05.59h-3.9c.1,1.31.94,1.99,1.92,1.99.55,0,1.04-.17,1.45-.44l.36.65c-.52.35-1.14.6-1.93.6-1.57,0-2.81-1.13-2.81-3.06Zm1.03-.52h3.03c0-1.13-.52-1.74-1.42-1.74-.72,0-1.46.49-1.62,1.74Z"/><path class="cls-7" d="m62.85,94.31l.46-.58c.5.42,1.03.65,1.75.65.77,0,1.15-.41,1.15-.91,0-.6-.66-.85-1.32-1.09-.88-.31-1.71-.73-1.71-1.69s.74-1.66,2.01-1.66c.72,0,1.36.28,1.81.66l-.46.56c-.41-.29-.83-.46-1.36-.46-.73,0-1.07.4-1.07.84,0,.53.52.74,1.24,1,.91.32,1.8.72,1.8,1.78,0,.95-.76,1.74-2.13,1.74-.85,0-1.63-.31-2.17-.84Z"/><path class="cls-7" d="m70.55,93.5c0-1.31,1.1-1.92,3.6-2.2-.01-.73-.26-1.44-1.21-1.44-.67,0-1.28.31-1.74.6l-.38-.67c.54-.36,1.36-.76,2.29-.76,1.42,0,2.03.95,2.03,2.4v3.57h-.82l-.08-.7h-.04c-.58.47-1.2.84-1.93.84-.97,0-1.71-.6-1.71-1.65Zm3.6.08v-1.57c-1.97.23-2.63.67-2.63,1.43,0,.65.46.9,1.02.9s1.04-.25,1.61-.75Z"/><path class="cls-7" d="m76.97,89.18h.82l.08.84h.04c.55-.55,1.15-.98,1.96-.98,1.22,0,1.77.79,1.77,2.28v3.69h-.98v-3.56c0-1.09-.34-1.56-1.1-1.56-.6,0-1.01.31-1.6.9v4.22h-.98v-5.83Z"/><path class="cls-7" d="m83.12,92.11c0-1.9,1.2-3.07,2.53-3.07.67,0,1.12.25,1.63.67l-.05-1v-2.24h1v8.54h-.82l-.08-.68h-.04c-.46.44-1.08.83-1.76.83-1.46,0-2.41-1.1-2.41-3.05Zm4.11,1.42v-3.05c-.49-.44-.94-.61-1.42-.61-.94,0-1.68.9-1.68,2.23s.59,2.23,1.61,2.23c.54,0,1.01-.26,1.49-.8Z"/><path class="cls-7" d="m92.12,93.98l.56-.65c.56.59,1.37.95,2.21.95,1.03,0,1.64-.52,1.64-1.28s-.56-1.06-1.31-1.39l-1.13-.49c-.76-.32-1.59-.89-1.59-2.03,0-1.2,1.03-2.09,2.47-2.09.96,0,1.78.4,2.33.95l-.54.65c-.49-.43-1.09-.72-1.79-.72-.88,0-1.46.44-1.46,1.15,0,.75.68,1.04,1.31,1.31l1.12.48c.94.4,1.62.93,1.62,2.1,0,1.25-1.01,2.24-2.67,2.24-1.13,0-2.07-.44-2.76-1.17Z"/><path class="cls-7" d="m98.57,92.11c0-1.96,1.31-3.07,2.81-3.07.77,0,1.31.29,1.7.68l-.49.6c-.3-.28-.67-.47-1.18-.47-1.04,0-1.82.91-1.82,2.25s.73,2.23,1.81,2.23c.53,0,1.01-.23,1.35-.55l.43.6c-.48.47-1.13.77-1.87.77-1.56,0-2.75-1.12-2.75-3.05Z"/><path class="cls-7" d="m104.31,87.33c0-.38.28-.65.66-.65s.66.26.66.65-.28.65-.66.65-.66-.25-.66-.65Zm.17,1.85h.98v5.83h-.98v-5.83Z"/><path class="cls-7" d="m106.99,92.1c0-1.9,1.3-3.06,2.64-3.06,1.5,0,2.31,1.08,2.31,2.73,0,.2-.01.4-.05.59h-3.9c.1,1.31.94,1.99,1.92,1.99.55,0,1.04-.17,1.45-.44l.36.65c-.52.35-1.14.6-1.93.6-1.57,0-2.81-1.13-2.81-3.06Zm1.03-.52h3.03c0-1.13-.52-1.74-1.42-1.74-.72,0-1.46.49-1.62,1.74Z"/><path class="cls-7" d="m113.38,89.18h.82l.08.84h.04c.55-.55,1.15-.98,1.96-.98,1.22,0,1.77.79,1.77,2.28v3.69h-.98v-3.56c0-1.09-.34-1.56-1.1-1.56-.6,0-1.01.31-1.6.9v4.22h-.98v-5.83Z"/><path class="cls-7" d="m119.51,92.11c0-1.96,1.31-3.07,2.81-3.07.77,0,1.31.29,1.7.68l-.49.6c-.3-.28-.67-.47-1.18-.47-1.04,0-1.82.91-1.82,2.25s.73,2.23,1.81,2.23c.53,0,1.01-.23,1.35-.55l.43.6c-.48.47-1.13.77-1.87.77-1.56,0-2.75-1.12-2.75-3.05Z"/><path class="cls-7" d="m124.72,92.1c0-1.9,1.3-3.06,2.64-3.06,1.5,0,2.31,1.08,2.31,2.73,0,.2-.01.4-.05.59h-3.9c.1,1.31.94,1.99,1.92,1.99.55,0,1.04-.17,1.45-.44l.36.65c-.52.35-1.14.6-1.93.6-1.57,0-2.81-1.13-2.81-3.06Zm1.03-.52h3.03c0-1.13-.52-1.74-1.42-1.74-.72,0-1.46.49-1.62,1.74Z"/><path class="cls-7" d="m130.47,94.31l.46-.58c.5.42,1.03.65,1.75.65.77,0,1.15-.41,1.15-.91,0-.6-.66-.85-1.32-1.09-.88-.31-1.71-.73-1.71-1.69s.74-1.66,2.01-1.66c.72,0,1.36.28,1.81.66l-.46.56c-.41-.29-.83-.46-1.36-.46-.73,0-1.07.4-1.07.84,0,.53.52.74,1.24,1,.91.32,1.8.72,1.8,1.78,0,.95-.76,1.74-2.13,1.74-.85,0-1.63-.31-2.17-.84Z"/><path class="cls-7" d="m138.4,93.58h1.66v-4.4h-1.43v-1.09c.83-.16,1.36-.37,1.9-.7h1.3v6.19h1.43v1.43h-4.85v-1.43Z"/><path class="cls-7" d="m144.39,91.38c0-2.84,1.48-4.13,3.08-4.13,1.01,0,1.74.42,2.22.91l-.92,1.06c-.26-.29-.74-.54-1.19-.54-.84,0-1.51.6-1.57,2.38.4-.5,1.06-.8,1.52-.8,1.31,0,2.27.74,2.27,2.35s-1.15,2.55-2.53,2.55c-1.48,0-2.88-1.1-2.88-3.78Zm1.66.88c.16,1.2.66,1.58,1.19,1.58s.96-.37.96-1.24c0-.8-.42-1.1-1-1.1-.4,0-.84.22-1.15.75Z"/><path class="cls-7" d="m150.55,89.52c0-1.56.82-2.47,1.94-2.47s1.95.91,1.95,2.47-.83,2.5-1.95,2.5-1.94-.92-1.94-2.5Zm2.66,0c0-1.12-.32-1.49-.72-1.49s-.72.37-.72,1.49.32,1.51.72,1.51.72-.4.72-1.51Zm3.77-2.47h1.02l-4.22,8.11h-1.02l4.22-8.11Zm-.66,5.61c0-1.56.82-2.47,1.94-2.47s1.96.91,1.96,2.47-.83,2.49-1.96,2.49-1.94-.92-1.94-2.49Zm2.66,0c0-1.12-.32-1.49-.72-1.49s-.72.37-.72,1.49.32,1.51.72,1.51.72-.4.72-1.51Z"/><path class="cls-4" d="m10.77,61.51h4.53v.84h-3.54v2.47h2.99v.85h-2.99v2.85h3.66v.85h-4.65v-7.87Z"/><path class="cls-4" d="m17,63.55h.82l.08.84h.04c.55-.55,1.15-.98,1.96-.98,1.22,0,1.77.79,1.77,2.28v3.69h-.98v-3.56c0-1.09-.34-1.56-1.1-1.56-.6,0-1.01.31-1.6.9v4.22h-.98v-5.83Z"/><path class="cls-4" d="m23.12,70.49c0-.49.32-.96.85-1.32v-.05c-.29-.18-.52-.49-.52-.95,0-.49.34-.88.64-1.08v-.05c-.38-.31-.76-.88-.76-1.57,0-1.27,1.01-2.07,2.19-2.07.32,0,.61.06.83.14h2.03v.76h-1.21v.05c.28.25.49.64.49,1.16,0,1.24-.95,2.01-2.14,2.01-.29,0-.61-.07-.88-.2-.2.18-.37.37-.37.7,0,.37.24.64,1.03.64h1.13c1.36,0,2.04.42,2.04,1.39,0,1.08-1.14,2.02-2.95,2.02-1.43,0-2.41-.56-2.41-1.57Zm4.4-.3c0-.54-.42-.72-1.18-.72h-1.01c-.23,0-.5-.02-.76-.1-.42.3-.6.65-.6.98,0,.62.64,1.02,1.69,1.02,1.12,0,1.85-.58,1.85-1.19Zm-.76-4.71c0-.85-.55-1.35-1.24-1.35s-1.24.5-1.24,1.35.56,1.39,1.24,1.39,1.24-.54,1.24-1.39Z"/><path class="cls-4" d="m29.44,61.7c0-.38.28-.65.66-.65s.66.26.66.65-.28.65-.66.65-.66-.25-.66-.65Zm.17,1.85h.98v5.83h-.98v-5.83Z"/><path class="cls-4" d="m32.56,63.55h.82l.08.84h.04c.55-.55,1.15-.98,1.96-.98,1.22,0,1.77.79,1.77,2.28v3.69h-.98v-3.56c0-1.09-.34-1.56-1.1-1.56-.6,0-1.01.31-1.6.9v4.22h-.98v-5.83Z"/><path class="cls-4" d="m38.68,66.46c0-1.9,1.3-3.06,2.64-3.06,1.5,0,2.31,1.08,2.31,2.73,0,.2-.01.4-.05.59h-3.9c.1,1.31.94,1.99,1.92,1.99.55,0,1.04-.17,1.45-.44l.36.65c-.52.35-1.14.6-1.93.6-1.57,0-2.81-1.13-2.81-3.06Zm1.03-.52h3.03c0-1.13-.52-1.74-1.42-1.74-.72,0-1.46.49-1.62,1.74Z"/><path class="cls-4" d="m44.63,66.46c0-1.9,1.3-3.06,2.64-3.06,1.5,0,2.31,1.08,2.31,2.73,0,.2-.01.4-.05.59h-3.9c.1,1.31.94,1.99,1.92,1.99.55,0,1.04-.17,1.45-.44l.36.65c-.52.35-1.14.6-1.93.6-1.57,0-2.81-1.13-2.81-3.06Zm1.03-.52h3.03c0-1.13-.52-1.74-1.42-1.74-.72,0-1.46.49-1.62,1.74Z"/><path class="cls-4" d="m51.03,63.55h.82l.08,1.06h.04c.38-.73.98-1.2,1.66-1.2.25,0,.43.04.62.12l-.22.84c-.18-.05-.3-.07-.54-.07-.49,0-1.08.36-1.48,1.34v3.74h-.98v-5.83Z"/><path class="cls-4" d="m55.03,61.7c0-.38.28-.65.66-.65s.66.26.66.65-.28.65-.66.65-.66-.25-.66-.65Zm.17,1.85h.98v5.83h-.98v-5.83Z"/><path class="cls-4" d="m58.15,63.55h.82l.08.84h.04c.55-.55,1.15-.98,1.96-.98,1.22,0,1.77.79,1.77,2.28v3.69h-.98v-3.56c0-1.09-.34-1.56-1.1-1.56-.6,0-1.01.31-1.6.9v4.22h-.98v-5.83Z"/><path class="cls-4" d="m64.27,70.49c0-.49.32-.96.85-1.32v-.05c-.29-.18-.52-.49-.52-.95,0-.49.34-.88.64-1.08v-.05c-.38-.31-.76-.88-.76-1.57,0-1.27,1.01-2.07,2.19-2.07.32,0,.61.06.83.14h2.03v.76h-1.21v.05c.28.25.49.64.49,1.16,0,1.24-.95,2.01-2.14,2.01-.29,0-.61-.07-.88-.2-.2.18-.37.37-.37.7,0,.37.24.64,1.03.64h1.13c1.36,0,2.04.42,2.04,1.39,0,1.08-1.14,2.02-2.95,2.02-1.43,0-2.41-.56-2.41-1.57Zm4.4-.3c0-.54-.42-.72-1.18-.72h-1.01c-.23,0-.5-.02-.76-.1-.42.3-.6.65-.6.98,0,.62.64,1.02,1.69,1.02,1.12,0,1.85-.58,1.85-1.19Zm-.76-4.71c0-.85-.55-1.35-1.24-1.35s-1.24.5-1.24,1.35.56,1.39,1.24,1.39,1.24-.54,1.24-1.39Z"/><path class="cls-4" d="m72.62,68.28c1.92-1.7,3.31-3.07,3.31-4.14,0-.74-.42-1.15-1.08-1.15-.55,0-.97.37-1.35.78l-.92-.91c.73-.83,1.45-1.25,2.52-1.25,1.5,0,2.52.96,2.52,2.41s-1.25,2.63-2.6,3.96c.4-.05.92-.1,1.27-.1h1.7v1.49h-5.36v-1.09Z"/><path class="cls-4" d="m82.04,67.55h-3.3v-1.21l2.78-4.58h2.16v4.45h.88v1.34h-.88v1.82h-1.64v-1.82Zm0-1.34v-1.23c0-.49.05-1.22.07-1.7h-.05c-.19.42-.41.85-.62,1.28l-1.01,1.65h1.61Z"/><path class="cls-4" d="m85.16,63.88c0-1.56.82-2.47,1.94-2.47s1.95.91,1.95,2.47-.83,2.49-1.95,2.49-1.94-.92-1.94-2.49Zm2.66,0c0-1.12-.32-1.49-.72-1.49s-.72.37-.72,1.49.32,1.51.72,1.51.72-.4.72-1.51Zm3.77-2.47h1.02l-4.22,8.11h-1.02l4.22-8.11Zm-.66,5.61c0-1.56.82-2.47,1.94-2.47s1.96.91,1.96,2.47-.83,2.49-1.96,2.49-1.94-.92-1.94-2.49Zm2.66,0c0-1.12-.32-1.49-.72-1.49s-.72.37-.72,1.49.32,1.51.72,1.51.72-.4.72-1.51Z"/><path class="cls-4" d="m82.31,35.87h4.53v.84h-3.54v2.47h2.99v.85h-2.99v2.85h3.66v.85h-4.65v-7.87Z"/><path class="cls-4" d="m88,40.84c0-1.9,1.2-3.07,2.53-3.07.67,0,1.12.25,1.63.67l-.05-1v-2.24h1v8.54h-.82l-.08-.68h-.04c-.46.44-1.08.83-1.76.83-1.46,0-2.41-1.1-2.41-3.05Zm4.11,1.42v-3.05c-.49-.44-.94-.61-1.42-.61-.94,0-1.68.9-1.68,2.23s.59,2.23,1.61,2.23c.54,0,1.01-.26,1.49-.8Z"/><path class="cls-4" d="m95,41.61v-3.69h1v3.56c0,1.09.32,1.56,1.09,1.56.6,0,1.02-.3,1.57-.98v-4.14h.98v5.83h-.82l-.08-.91h-.04c-.54.64-1.12,1.06-1.92,1.06-1.24,0-1.79-.79-1.79-2.28Z"/><path class="cls-4" d="m101.18,40.84c0-1.96,1.31-3.07,2.81-3.07.77,0,1.31.29,1.7.68l-.49.6c-.3-.28-.67-.47-1.18-.47-1.04,0-1.82.91-1.82,2.25s.73,2.23,1.81,2.23c.53,0,1.01-.23,1.35-.55l.43.6c-.48.47-1.13.77-1.87.77-1.56,0-2.75-1.12-2.75-3.05Z"/><path class="cls-4" d="m106.59,42.23c0-1.31,1.1-1.92,3.6-2.19-.01-.73-.26-1.44-1.21-1.44-.67,0-1.28.31-1.74.6l-.38-.67c.54-.36,1.36-.76,2.29-.76,1.42,0,2.03.95,2.03,2.4v3.57h-.82l-.08-.7h-.04c-.58.47-1.2.84-1.93.84-.97,0-1.71-.6-1.71-1.66Zm3.6.08v-1.57c-1.97.23-2.63.67-2.63,1.43,0,.65.46.9,1.02.9s1.04-.25,1.61-.76Z"/><path class="cls-4" d="m113.01,41.91v-3.19h-.86v-.74l.91-.06.12-1.87h.83v1.87h1.57v.8h-1.57v3.21c0,.71.23,1.12.9,1.12.2,0,.43-.04.66-.14l.2.7c-.31.16-.7.25-1.09.25-1.25,0-1.67-.78-1.67-1.94Z"/><path class="cls-4" d="m116.73,36.07c0-.38.28-.65.66-.65s.66.26.66.65-.28.65-.66.65-.66-.25-.66-.65Zm.17,1.85h.98v5.83h-.98v-5.83Z"/><path class="cls-4" d="m119.42,40.84c0-1.96,1.27-3.07,2.7-3.07s2.7,1.12,2.7,3.07-1.27,3.05-2.7,3.05-2.7-1.12-2.7-3.05Zm4.38,0c0-1.34-.67-2.25-1.68-2.25s-1.68.91-1.68,2.25.68,2.23,1.68,2.23,1.68-.9,1.68-2.23Z"/><path class="cls-4" d="m126.35,37.91h.82l.08.84h.04c.55-.55,1.15-.98,1.96-.98,1.22,0,1.77.79,1.77,2.28v3.69h-.98v-3.56c0-1.09-.34-1.56-1.1-1.56-.6,0-1.01.31-1.6.9v4.22h-.98v-5.83Z"/><path class="cls-4" d="m134.61,42.82l.79-1.12c.46.42,1,.76,1.64.76.78,0,1.28-.41,1.28-1.19s-.49-1.18-1.2-1.18c-.44,0-.67.1-1.13.38l-.79-.5.22-3.85h4.32v1.49h-2.79l-.13,1.43c.29-.13.54-.18.85-.18,1.31,0,2.42.74,2.42,2.36s-1.31,2.66-2.79,2.66c-1.25,0-2.09-.47-2.69-1.07Z"/><path class="cls-4" d="m140.98,38.25c0-1.56.82-2.47,1.94-2.47s1.95.91,1.95,2.47-.83,2.49-1.95,2.49-1.94-.92-1.94-2.49Zm2.66,0c0-1.12-.32-1.49-.72-1.49s-.72.37-.72,1.49.32,1.51.72,1.51.72-.4.72-1.51Zm3.77-2.47h1.02l-4.22,8.11h-1.02l4.22-8.11Zm-.66,5.61c0-1.56.82-2.47,1.94-2.47s1.96.91,1.96,2.47-.83,2.49-1.96,2.49-1.94-.92-1.94-2.49Zm2.66,0c0-1.12-.32-1.49-.72-1.49s-.72.37-.72,1.49.32,1.51.72,1.51.72-.4.72-1.51Z"/><path class="cls-7" d="m10.77,10.24h2.34c1.6,0,2.7.54,2.7,1.92,0,.82-.41,1.48-1.15,1.71v.05c.98.18,1.61.79,1.61,1.85,0,1.57-1.22,2.34-2.99,2.34h-2.51v-7.87Zm2.16,3.35c1.34,0,1.9-.49,1.9-1.3,0-.91-.62-1.26-1.85-1.26h-1.21v2.55h1.16Zm.2,3.73c1.36,0,2.15-.49,2.15-1.55,0-.97-.77-1.42-2.15-1.42h-1.37v2.96h1.37Z"/><path class="cls-7" d="m17.65,15.97v-3.69h1v3.56c0,1.09.32,1.56,1.09,1.56.6,0,1.02-.3,1.57-.98v-4.14h.98v5.83h-.82l-.08-.91h-.04c-.54.64-1.12,1.06-1.92,1.06-1.24,0-1.79-.79-1.79-2.28Z"/><path class="cls-7" d="m23.61,17.41l.46-.58c.5.42,1.03.65,1.75.65.77,0,1.15-.41,1.15-.91,0-.6-.66-.85-1.32-1.09-.88-.31-1.71-.73-1.71-1.69s.74-1.65,2.01-1.65c.72,0,1.36.28,1.81.66l-.46.56c-.41-.29-.83-.46-1.36-.46-.73,0-1.07.4-1.07.84,0,.53.52.74,1.24,1,.91.32,1.8.72,1.8,1.77,0,.95-.76,1.74-2.13,1.74-.85,0-1.63-.31-2.17-.84Z"/><path class="cls-7" d="m29.12,10.43c0-.38.28-.65.66-.65s.66.26.66.65-.28.65-.66.65-.66-.25-.66-.65Zm.17,1.85h.98v5.83h-.98v-5.83Z"/><path class="cls-7" d="m32.24,12.28h.82l.08.84h.04c.55-.55,1.15-.98,1.96-.98,1.22,0,1.77.79,1.77,2.28v3.69h-.98v-3.56c0-1.09-.34-1.56-1.1-1.56-.6,0-1.01.31-1.6.9v4.22h-.98v-5.83Z"/><path class="cls-7" d="m38.36,15.19c0-1.9,1.3-3.06,2.64-3.06,1.5,0,2.31,1.08,2.31,2.73,0,.2-.01.4-.05.59h-3.9c.1,1.31.94,1.99,1.92,1.99.55,0,1.04-.17,1.45-.44l.36.65c-.52.35-1.14.6-1.93.6-1.57,0-2.81-1.13-2.81-3.06Zm1.03-.52h3.03c0-1.13-.52-1.74-1.42-1.74-.72,0-1.46.49-1.62,1.74Z"/><path class="cls-7" d="m44.11,17.41l.46-.58c.5.42,1.03.65,1.75.65.77,0,1.15-.41,1.15-.91,0-.6-.66-.85-1.32-1.09-.88-.31-1.71-.73-1.71-1.69s.74-1.65,2.01-1.65c.72,0,1.36.28,1.81.66l-.46.56c-.41-.29-.83-.46-1.36-.46-.73,0-1.07.4-1.07.84,0,.53.52.74,1.24,1,.91.32,1.8.72,1.8,1.77,0,.95-.76,1.74-2.13,1.74-.85,0-1.63-.31-2.17-.84Z"/><path class="cls-7" d="m49.13,17.41l.46-.58c.5.42,1.03.65,1.75.65.77,0,1.15-.41,1.15-.91,0-.6-.66-.85-1.32-1.09-.88-.31-1.71-.73-1.71-1.69s.74-1.65,2.01-1.65c.72,0,1.36.28,1.81.66l-.46.56c-.41-.29-.83-.46-1.36-.46-.73,0-1.07.4-1.07.84,0,.53.52.74,1.24,1,.91.32,1.8.72,1.8,1.77,0,.95-.76,1.74-2.13,1.74-.85,0-1.63-.31-2.17-.84Z"/><path class="cls-7" d="m57.07,16.68h1.66v-4.4h-1.43v-1.09c.83-.16,1.36-.37,1.9-.7h1.3v6.19h1.43v1.43h-4.85v-1.43Z"/><path class="cls-7" d="m63.07,16.17c0-.92.58-1.49,1.29-1.87v-.05c-.59-.44-1.02-1-1.02-1.8,0-1.3,1.02-2.1,2.43-2.1s2.31.83,2.31,2.09c0,.73-.47,1.32-1,1.67v.05c.73.4,1.32.98,1.32,1.99,0,1.2-1.08,2.11-2.7,2.11-1.52,0-2.65-.85-2.65-2.09Zm3.71-.08c0-.67-.65-.92-1.61-1.33-.34.31-.59.74-.59,1.21,0,.67.54,1.07,1.18,1.07.59,0,1.02-.31,1.02-.95Zm-.11-3.53c0-.59-.35-.98-.92-.98-.47,0-.85.29-.85.88,0,.62.53.92,1.31,1.22.3-.35.47-.72.47-1.12Z"/><path class="cls-7" d="m69.21,12.62c0-1.56.82-2.47,1.94-2.47s1.95.91,1.95,2.47-.83,2.49-1.95,2.49-1.94-.92-1.94-2.49Zm2.66,0c0-1.12-.32-1.49-.72-1.49s-.72.37-.72,1.49.32,1.51.72,1.51.72-.4.72-1.51Zm3.77-2.47h1.02l-4.22,8.11h-1.02l4.22-8.11Zm-.66,5.61c0-1.56.82-2.47,1.94-2.47s1.96.91,1.96,2.47-.83,2.49-1.96,2.49-1.94-.92-1.94-2.49Zm2.66,0c0-1.12-.32-1.49-.72-1.49s-.72.37-.72,1.49.32,1.51.72,1.51.72-.4.72-1.51Z"/></svg>