<?xml version="1.0" encoding="UTF-8"?><svg id="Layer_1" xmlns="http://www.w3.org/2000/svg" viewBox="0 0 292.58 61.2"><defs><style>.cls-1{fill:#fff;stroke-width:0px;}</style></defs><path class="cls-1" d="m33.64,52.02c-4.55,0-4.89-3.44-4.89-4.5,0-1.24.32-3.44,3.22-4.5,2.99-1.1,3.62-1.23,5.68-1.87v-.54c0-.99,0-1.23-.2-1.86-.39-1.17-1.53-1.92-3.07-1.92s-2.81.85-3.38,2.08l-.84-.5c.54-1.9,2.44-3.78,5.73-3.78,2.34,0,3.87.66,4.8,2.09.71,1.13.77,2.71.77,4.34,0,1.45-.04,3.05-.07,4.34-.02.9-.04,1.66-.04,2.14,0,1.18.19,2.09,1.17,2.09.4,0,.49-.11.83-.39l.54.62c-.89,1.16-1.86,2.11-3.5,2.11-1.33,0-2.25-.64-2.56-1.7-.75.77-2.08,1.73-4.19,1.73m4.01-8.8c-2.22.67-2.99,1.04-3.67,1.39-.98.48-1.47,1.47-1.47,2.63,0,.9.33,2.43,2.5,2.43.72,0,1.75-.14,2.64-.78v-5.67ZM.13,51.12c0-1.68.01-3.11-.13-4.84h.99c.01,1.07.31,1.85.77,2.38.71.8,2.36,1.29,3.88,1.29,3.19,0,4.67-1.21,4.67-3.8,0-2.22-1.37-3.14-3.28-4.43l-.29-.21-2-1.34c-2.79-1.84-4.21-3.32-4.21-6.27,0-1.45.55-6.16,7.57-6.16,1.77,0,4.1.19,5.5.45-.01.23-.04,1.3-.04,2.21,0,1.05,0,1.4.04,2.69h-.85c-.03-1.13-.34-1.86-.83-2.35-.68-.67-2.17-.99-3.75-.99-3.72,0-4.16,1.91-4.16,3.34,0,1.98,1.01,2.65,3.21,4.11l2.54,1.68c2.16,1.44,4.2,2.8,4.2,6.39,0,6.07-5.66,6.73-8.09,6.73-2.21,0-3.98-.27-5.77-.87m45.25-15.36c.85.07,2.13-.02,3.39-.24,1.06-.18,1.44-.33,2.23-.73l.33.2v1.33c.85-.62,2.54-1.61,4.86-1.61,3.01,0,4.99,1.41,5.55,3.98.16.64.22,2.17.22,2.99v4.89c0,2.77.11,3.54.62,4.03.26.23.88.48,1.62.48v.78c-1.07-.05-2.99-.16-4.14-.16-1.53,0-3.26.07-4.19.18v-.77c.83-.09,1.4-.33,1.69-.61.48-.49.57-1.45.64-3.53.02-.62.04-1.93.04-2.9,0-1.25,0-2.55-.14-3.83-.25-2.17-1.39-3.17-3.55-3.17-1.51,0-2.44.34-3.14.7v8.8c0,2.77.11,3.54.64,4.03.25.23.91.49,1.61.48v.78c-1.39-.07-3.05-.16-4.12-.16-2.23,0-2.93.04-4.22.18v-.79c.73-.01,1.43-.27,1.82-.71.51-.58.54-2.01.54-4.85v-4.79c0-2.07-.04-2.95-.33-3.4-.23-.35-.8-.62-1.96-.61v-.96Zm20.81,15.31c.68.01,1.41-.25,1.82-.71.52-.58.55-1.99.55-4.84v-8.31h-2.18v-.94c.92-.35,1.73-.77,2.18-1.13,0-1.47.05-3.39.25-4.44.64-3.45,2.92-5.21,6.71-5.21,1.67,0,3.26.57,4.22,1.39l.06.35-1.66,2.31h-.4c-.57-1.38-1.42-2.18-2.92-2.18-.52,0-1.24.16-1.69.6-.72.72-.84,1.8-.84,3.94v3.24h3.74v2.08h-3.74v9.29c0,2.2.08,3.29.36,3.72.47.7,1.94.78,2.66.76v.89c-1.23-.08-3.14-.16-4.57-.16-2.08,0-3.43.06-4.55.18v-.81Zm19.27,1.1c-5.11,0-8.17-3.19-8.17-8.52,0-4.15,2.23-8.98,8.52-8.98,5.11,0,8.16,3.18,8.16,8.52,0,4.13-2.23,8.98-8.51,8.98m.21-15.56c-1,0-1.79.26-2.38.76-1.34,1.13-2.02,3.17-2.02,6.1,0,1.13.21,6.76,4.33,6.76.98,0,1.78-.26,2.36-.75,1.36-1.13,2.03-3.19,2.03-6.11,0-1.12-.21-6.75-4.32-6.75m9.98-.91c1.14.06,2.37-.07,3.66-.3,1-.18,1.63-.39,1.99-.56l.3.15v1.45c.81-.76,2.07-1.55,3.87-1.55,1.31,0,2.18.37,2.92,1.03v.53l-1.41,2.58h-.69c-.45-.78-1.28-1.51-2.79-1.51-.71,0-1.3.17-1.83.53v8.44c0,2.2.07,3.25.36,3.68.47.7,1.86.78,2.65.75v.93c-1.15-.06-3.13-.16-4.56-.16-1.61,0-3.21.03-4.54.18v-.84c.93-.05,1.46-.31,1.82-.71.52-.59.55-1.96.55-4.8v-4.79c0-2.07-.01-2.97-.33-3.4-.27-.38-.88-.6-1.96-.61v-1.02Zm23.57-9.25c1.01,0,2.33-.19,3.94-.47.91-.16,1.53-.33,1.82-.44l.29.17c-.14,1.39-.14,4.5-.14,6.71v13.66c0,2.04.03,3.3.33,3.71.26.38.88.64,1.93.64v.89c-1.06,0-2.31.14-3.6.35-.86.14-1.54.28-1.86.45l-.46-.15v-1.41c-.83.62-2.48,1.58-4.68,1.58-4.6,0-7.56-3.19-7.56-8.13,0-1.64.32-3.2.9-4.51,1.41-3.04,4.32-4.78,8-4.78,1.34,0,2.55.17,3.27.32v-3.57c0-2.08-.03-3.2-.34-3.64-.23-.34-.58-.51-1.83-.6v-.76Zm-.58,23.27c1.14,0,1.92-.18,2.75-.68v-11.22c-.27-.26-1.29-1.12-3.34-1.12-3.26,0-4.84,2.23-4.84,6.82,0,1.93.58,6.19,5.43,6.19m-91.58.48c-.51.61-1.81,1.91-4.54,1.91s-4.03-.92-4.67-2.99c-.26-.82-.26-2.44-.26-3.41,0-2.68.03-4.83.05-7.31v-1.17s-2.2,0-2.2,0v-.65c.9-.35,1.5-.71,2.1-1.16,1.3-1.01,2.13-2.26,3.12-4.03h.74v3.76h5.69v2.08h-5.69v8.79c0,2.63.48,4.13,2.96,4.13,1.16,0,1.93-.38,2.41-.63l.28.68Zm255.32-14.22c-.46,0-1,.15-1.36.43-.29.22-.36.58-.36.81,0,.42.15.84.45,1.64l2.46,6.53c.37.98.64,1.79.81,2.36l3-8.94c.36-1.03.42-1.27.42-1.66,0-.22-.13-.48-.29-.65-.3-.29-.8-.44-1.41-.48v-.96c.36,0,1.15.05,1.52.08.34.03,1.06.08,1.63.08,1.12,0,2.67-.1,3.34-.17v.98c-.45.05-1.5-.08-2.32,2.46l-6.42,17.15c-.94,2.48-2.1,5.55-6.6,5.55-1.79,0-3.09-.44-4.01-1.34v-.47l1.58-1.93h.45c.47,1.04,1.35,1.47,2.55,1.47,2.04,0,2.93-1.75,4.34-5.46l.38-1.01-5.46-13.97c-.05-.1-.12-.29-.2-.51-.16-.38-.45-1.03-.45-1.03-.32-.66-.93-.95-1.63-.92v-.99c1.03.09,2.81.17,3.73.17.61,0,1.52-.05,2.32-.08.45-.02,1.19-.06,1.54-.07v.92Zm-59.66-.3c1.14.06,2.37-.08,3.66-.3,1-.17,1.63-.39,1.99-.56l.3.15v1.46c.81-.76,2.07-1.55,3.87-1.55,1.31,0,2.18.37,2.92,1.04v.53l-1.4,2.59h-.69c-.45-.78-1.28-1.51-2.79-1.51-.71,0-1.3.17-1.83.53v8.45c0,2.2.07,3.24.36,3.68.46.71,1.86.78,2.65.75v.93c-1.15-.07-3.13-.16-4.56-.16-1.62,0-3.22.03-4.55.18v-.84c.93-.05,1.46-.3,1.82-.71.52-.59.55-1.96.55-4.81v-4.79c0-2.07-.02-2.97-.33-3.4-.28-.38-.88-.6-1.96-.61v-1.02Zm-75.22,16.4c-4.77,0-7.51-1.48-8.61-4.65-.54-1.63-.54-3.55-.54-5.24v-8.98c0-2.73-.13-3.14-.63-3.59-.22-.19-.82-.47-1.62-.51v-.92c1.13.12,2.99.17,4.16.17,1.96,0,3-.05,4.26-.17v.96c-.76-.03-1.38.18-1.8.66-.53.59-.56,1.61-.56,4.46v7.96c0,4.69.4,7.77,5.8,7.77s5.76-3.16,5.76-7.98v-8.8c0-2.73-.13-3.14-.63-3.59-.31-.27-.95-.47-1.62-.51v-.91c1.06.04,2.41.16,3.7.16s2.49-.03,3.99-.17v.96c-.79-.03-1.39.19-1.81.66-.53.59-.56,1.61-.56,4.46v6.72c0,2.14,0,4.57-.68,6.45-1.15,3.17-3.88,4.65-8.61,4.65m32.18-1.03c.94-.1,1.51-.21,1.95-.7.52-.59.55-1.95.55-4.83v-4.79c0-2.07-.04-3.09-.34-3.55-.27-.39-.72-.54-1.92-.62v-.97c.71.11,2.44-.06,3.85-.33.72-.12,1.41-.36,1.85-.59l.37.37c-.1,1.07-.15,3.5-.15,6.63v4.89c0,2.21.07,3.23.37,3.67.3.45,1.05.75,2.06.8v.8c-1.01-.06-2.73-.15-4.23-.15-1.67,0-3.46.07-4.37.17v-.8Zm4.16-19.25c-1.31,0-2.19-.83-2.19-2.08s.91-2.16,2.25-2.16,2.19.83,2.19,2.08-.91,2.15-2.26,2.15m67.18,19.25c.94-.1,1.51-.21,1.95-.7.52-.59.55-1.95.55-4.83v-4.79c0-2.07-.03-3.09-.34-3.55-.27-.39-.72-.54-1.92-.62v-.97c.71.11,2.44-.06,3.85-.33.73-.12,1.41-.36,1.85-.59l.37.37c-.1,1.07-.15,3.5-.15,6.63v4.89c0,2.21.07,3.23.37,3.67.3.45,1.06.75,2.06.8v.8c-1.01-.06-2.73-.15-4.23-.15-1.67,0-3.46.07-4.37.17v-.8Zm4.16-19.25c-1.31,0-2.19-.83-2.19-2.08s.9-2.16,2.26-2.16,2.19.83,2.19,2.08-.91,2.15-2.26,2.15m-17.81,19.45c0-1.73-.1-3.52-.21-4.42h1.11c.03.94.26,1.64.71,2.19.68.81,1.48,1.11,2.96,1.11h.2c1.85,0,2.79-.78,2.79-2.32,0-1.26-.8-1.77-2.13-2.61l-2.39-1.48c-1.26-.77-2.72-1.96-2.72-4.25,0-1.96.8-3.34,2.39-4.13,1.04-.52,2.54-.6,3.35-.6,1.38,0,3.31.18,4.43.42-.08.45-.11,1.63-.11,2.01,0,.35.02,1.94.06,2.23h-1.1c0-.71-.19-1.36-.62-1.93-.4-.52-1.42-.96-2.65-.96-1.7,0-2.56.72-2.56,2.14,0,1.17.9,1.72,1.7,2.2l.08.05,2.25,1.34c1.51.88,3.39,1.98,3.39,4.68,0,4.41-4.01,5.07-6.41,5.07-1.52,0-2.95-.19-4.51-.76m35.43-1.09c-.51.62-1.81,1.91-4.54,1.91s-4.03-.92-4.67-2.99c-.26-.82-.26-2.44-.26-3.41,0-2.68.03-4.83.05-7.31v-1.17s-2.2,0-2.2,0v-.65c.9-.35,1.51-.71,2.1-1.16,1.3-1.01,2.12-2.26,3.12-4.03h.74v3.76h5.69v2.08h-5.69v8.8c0,2.63.48,4.13,2.96,4.13,1.16,0,1.93-.38,2.41-.63l.28.68Zm-76.34-15.1c-.34,0-1.09.04-1.54.07-.86.04-1.83.08-2.45.08-1.23,0-3.05-.11-3.61-.17v.99c.19,0,1.15-.08,1.64.98.2.42.37.84.43.98.08.22.19.49.24.59l5.39,13.57,1.66-.29,5.93-13.34c.04-.09.11-.24.2-.42.08-.17.16-.38.54-1.06.38-.68,1.12-1.03,1.74-.99l.03-1.01c-.68.05-2.15.17-3.25.17-.57,0-1.16-.04-1.72-.08-.4-.02-1.12-.07-1.52-.08v.94c.54-.01,1.16.21,1.41.46.14.11.29.41.29.64,0,.38-.06.67-.45,1.69l-3.23,8.01c-.15-.48-.38-1.15-.69-1.98l-2.3-6.02c-.34-.91-.42-1.28-.42-1.68,0-.23.05-.41.22-.6.31-.35.87-.52,1.45-.52l.02-.94Zm-36.88.69c.85.07,2.13-.02,3.39-.24,1.05-.18,1.44-.33,2.23-.73l.33.2v1.33c.85-.62,2.54-1.61,4.86-1.61,3.01,0,4.99,1.41,5.55,3.98.16.64.22,2.17.22,2.99v4.89c0,2.77.11,3.54.62,4.03.27.23.88.48,1.62.48v.78c-1.08-.05-2.99-.16-4.14-.16-1.53,0-3.26.07-4.19.18v-.77c.83-.09,1.4-.33,1.69-.61.49-.49.57-1.45.64-3.53.02-.62.04-1.93.04-2.9,0-1.25,0-2.55-.14-3.83-.25-2.17-1.39-3.17-3.55-3.17-1.51,0-2.44.34-3.14.7v8.8c0,2.77.11,3.54.63,4.03.26.23.91.49,1.62.48v.78c-1.39-.07-3.05-.16-4.12-.16-2.23,0-2.93.04-4.22.18v-.79c.72-.01,1.43-.27,1.82-.71.51-.58.54-2.01.54-4.85v-4.79c0-2.07-.04-2.95-.33-3.4-.23-.35-.8-.62-1.95-.61v-.96Zm54.92,16.3c-5.05,0-7.82-2.91-7.82-8.2,0-.93.22-9.09,7.89-9.09,2.31,0,4.26.94,5.23,2.51.97,1.56,1.1,3.17,1.1,4.54v.89h-10.52c.01.86.07,1.52.17,2.12.57,3.23,2.37,4.8,5.53,4.8,1.78,0,2.91-.38,3.98-.99l.49.84c-1.17,1.53-3.46,2.59-6.07,2.59m-4.07-11.2h6.59c0-1.99-.39-4.25-3.3-4.25-2.69,0-3.24,2.53-3.3,4.25"/><polygon class="cls-1" points=".83 1.42 3.87 1.42 3.87 9.2 3.95 9.2 10.05 1.42 13.44 1.42 8.17 8.1 14.33 18.56 10.97 18.56 6.33 10.49 3.87 13.55 3.87 18.56 .83 18.56 .83 1.42"/><path class="cls-1" d="m16.22,5.69h2.49l.21,1.73h.11c1.15-1.13,2.46-2.05,4.22-2.05,2.75,0,3.96,1.86,3.96,5.11v8.07h-3.01v-7.68c0-2.12-.6-2.91-2.02-2.91-1.13,0-1.86.55-2.94,1.6v8.99h-3.01V5.69Z"/><path class="cls-1" d="m30.56,1.73c0-1.02.79-1.73,1.86-1.73s1.86.71,1.86,1.73-.79,1.7-1.86,1.7-1.86-.71-1.86-1.7m.34,3.96h3.01v12.87h-3.01V5.69Z"/><path class="cls-1" d="m38.74,18.14v-.11c-.65-.42-1.15-1.1-1.15-2.15s.68-1.86,1.42-2.39v-.1c-.86-.66-1.68-1.89-1.68-3.41,0-2.96,2.39-4.61,5.09-4.61.71,0,1.36.13,1.89.32h4.61v2.23h-2.36c.42.5.73,1.28.73,2.18,0,2.86-2.15,4.38-4.88,4.38-.55,0-1.18-.11-1.76-.34-.39.34-.63.66-.63,1.23,0,.73.52,1.18,2.1,1.18h2.28c3.09,0,4.72.94,4.72,3.17,0,2.54-2.67,4.54-6.87,4.54-3.07,0-5.35-1.1-5.35-3.36,0-1.07.65-2.02,1.83-2.75m3.98,4.14c2.07,0,3.49-.97,3.49-2.07,0-1-.81-1.28-2.28-1.28h-1.76c-.71,0-1.26-.05-1.76-.18-.68.52-1,1.1-1,1.7,0,1.15,1.26,1.83,3.3,1.83m1.91-12.29c0-1.6-.97-2.54-2.23-2.54s-2.25.92-2.25,2.54,1,2.6,2.25,2.6,2.23-.94,2.23-2.6"/><path class="cls-1" d="m51.4.05h3.01v4.77l-.11,2.49c1.08-1.02,2.36-1.94,4.12-1.94,2.75,0,3.96,1.86,3.96,5.11v8.07h-3.01v-7.68c0-2.12-.6-2.91-2.02-2.91-1.13,0-1.86.55-2.94,1.6v8.99h-3.01V.05Z"/><path class="cls-1" d="m66.47,8.07h-1.84v-2.26l1.99-.13.37-3.51h2.52v3.51h3.28v2.39h-3.28v6.13c0,1.52.58,2.26,1.81,2.26.45,0,.97-.13,1.34-.29l.53,2.23c-.71.24-1.6.47-2.62.47-2.99,0-4.09-1.89-4.09-4.67v-6.13Z"/><rect class="cls-1" x="73.87" y="10.85" width="6.24" height="2.2"/><polygon class="cls-1" points="83.38 1.42 86.42 1.42 86.42 8.31 93.37 8.31 93.37 1.42 96.41 1.42 96.41 18.56 93.37 18.56 93.37 10.96 86.42 10.96 86.42 18.56 83.38 18.56 83.38 1.42"/><path class="cls-1" d="m105.59,5.37c3.49,0,5.32,2.52,5.32,6.11,0,.58-.05,1.1-.13,1.42h-8.18c.26,2.33,1.73,3.64,3.8,3.64,1.1,0,2.04-.34,2.99-.94l1.02,1.89c-1.23.81-2.78,1.39-4.4,1.39-3.57,0-6.34-2.49-6.34-6.74s2.91-6.76,5.92-6.76m2.7,5.61c0-2.04-.87-3.28-2.62-3.28-1.52,0-2.83,1.13-3.09,3.28h5.71Z"/><path class="cls-1" d="m113.79,5.69h2.49l.21,1.73h.11c1.15-1.13,2.46-2.05,4.22-2.05,2.75,0,3.96,1.86,3.96,5.11v8.07h-3.01v-7.68c0-2.12-.6-2.91-2.02-2.91-1.13,0-1.86.55-2.94,1.6v8.99h-3.01V5.69Z"/><path class="cls-1" d="m128.47,5.69h2.49l.21,1.73h.1c1.15-1.13,2.46-2.05,4.22-2.05,2.75,0,3.96,1.86,3.96,5.11v8.07h-3.01v-7.68c0-2.12-.6-2.91-2.02-2.91-1.13,0-1.86.55-2.94,1.6v8.99h-3.01V5.69Z"/><path class="cls-1" d="m148.24,5.37c3.49,0,5.32,2.52,5.32,6.11,0,.58-.05,1.1-.13,1.42h-8.18c.26,2.33,1.73,3.64,3.8,3.64,1.1,0,2.04-.34,2.99-.94l1.02,1.89c-1.23.81-2.78,1.39-4.4,1.39-3.56,0-6.34-2.49-6.34-6.74s2.91-6.76,5.92-6.76m2.7,5.61c0-2.04-.87-3.28-2.62-3.28-1.52,0-2.83,1.13-3.09,3.28h5.71Z"/><path class="cls-1" d="m156.58,15.15c1.15.89,2.26,1.44,3.57,1.44,1.39,0,2.04-.65,2.04-1.55,0-1.08-1.39-1.55-2.75-2.07-1.7-.63-3.62-1.6-3.62-3.75,0-2.25,1.81-3.85,4.69-3.85,1.78,0,3.23.73,4.27,1.55l-1.39,1.83c-.89-.66-1.81-1.1-2.83-1.1-1.29,0-1.89.6-1.89,1.42,0,1.02,1.29,1.42,2.67,1.91,1.76.66,3.7,1.5,3.7,3.91,0,2.2-1.76,3.99-5.01,3.99-1.76,0-3.62-.76-4.88-1.78l1.42-1.94Z"/><path class="cls-1" d="m167.88,15.15c1.15.89,2.25,1.44,3.57,1.44,1.39,0,2.04-.65,2.04-1.55,0-1.08-1.39-1.55-2.75-2.07-1.7-.63-3.62-1.6-3.62-3.75,0-2.25,1.81-3.85,4.69-3.85,1.78,0,3.22.73,4.27,1.55l-1.39,1.83c-.89-.66-1.81-1.1-2.83-1.1-1.28,0-1.89.6-1.89,1.42,0,1.02,1.28,1.42,2.67,1.91,1.76.66,3.7,1.5,3.7,3.91,0,2.2-1.76,3.99-5.01,3.99-1.76,0-3.62-.76-4.88-1.78l1.42-1.94Z"/><path class="cls-1" d="m179.7,21.42c1.36,0,2.15-.92,2.57-2.2l.24-.81-5.06-12.71h3.07l2.23,6.32c.37,1.13.73,2.41,1.13,3.62h.11c.31-1.18.65-2.46.97-3.62l1.94-6.32h2.91l-4.67,13.45c-1.08,2.91-2.41,4.72-5.22,4.72-.71,0-1.21-.1-1.68-.26l.55-2.36c.24.08.6.18.92.18"/><path class="cls-1" d="m198.26,14.29c1.23,1.15,2.88,1.94,4.46,1.94,1.94,0,2.99-.86,2.99-2.2,0-1.42-1.1-1.86-2.65-2.52l-2.36-1.02c-1.68-.71-3.46-2.04-3.46-4.56,0-2.73,2.41-4.82,5.77-4.82,1.99,0,3.93.84,5.27,2.18l-1.55,1.94c-1.1-.92-2.25-1.47-3.72-1.47-1.62,0-2.7.76-2.7,2.02,0,1.34,1.31,1.83,2.73,2.41l2.33.97c2.02.86,3.46,2.15,3.46,4.64,0,2.78-2.31,5.08-6.16,5.08-2.31,0-4.56-.92-6.19-2.52l1.78-2.07Z"/><path class="cls-1" d="m217.29,5.37c1.65,0,2.91.66,3.78,1.49l-1.44,1.91c-.68-.6-1.36-.94-2.18-.94-2.07,0-3.51,1.7-3.51,4.3s1.42,4.27,3.43,4.27c1.05,0,1.94-.52,2.65-1.1l1.26,1.91c-1.21,1.07-2.75,1.65-4.22,1.65-3.51,0-6.21-2.46-6.21-6.74s3.01-6.76,6.45-6.76"/><path class="cls-1" d="m223.8.05h3.01v4.77l-.1,2.49c1.07-1.02,2.36-1.94,4.11-1.94,2.75,0,3.96,1.86,3.96,5.11v8.07h-3.02v-7.68c0-2.12-.6-2.91-2.02-2.91-1.13,0-1.86.55-2.93,1.6v8.99h-3.01V.05Z"/><path class="cls-1" d="m243.69,5.37c3.22,0,6.13,2.46,6.13,6.76s-2.91,6.74-6.13,6.74-6.11-2.46-6.11-6.74,2.91-6.76,6.11-6.76m0,11.04c1.89,0,3.04-1.7,3.04-4.27s-1.15-4.3-3.04-4.3-3.01,1.7-3.01,4.3,1.13,4.27,3.01,4.27"/><path class="cls-1" d="m252.82.05h3.02v15.36c0,.73.34,1,.65,1,.13,0,.23,0,.47-.05l.39,2.26c-.37.16-.89.26-1.6.26-2.15,0-2.94-1.39-2.94-3.62V.05Z"/><path class="cls-1" d="m266.95,10.33c-.03-1.36-.6-2.52-2.33-2.52-1.28,0-2.49.58-3.62,1.26l-1.1-2.02c1.42-.89,3.22-1.68,5.27-1.68,3.23,0,4.8,1.97,4.8,5.56v7.63h-2.46l-.24-1.42h-.08c-1.15.97-2.46,1.73-3.98,1.73-2.25,0-3.83-1.52-3.83-3.77,0-2.75,2.31-4.19,7.58-4.77m-2.8,6.19c1.05,0,1.86-.52,2.8-1.42v-2.88c-3.49.45-4.64,1.36-4.64,2.65,0,1.15.76,1.65,1.84,1.65"/><path class="cls-1" d="m273.63,5.69h2.49l.21,2.28h.1c.92-1.68,2.28-2.6,3.64-2.6.65,0,1.07.08,1.47.26l-.52,2.62c-.45-.13-.79-.21-1.34-.21-1.02,0-2.25.71-3.04,2.65v7.86h-3.02V5.69Z"/><path class="cls-1" d="m283.28,15.15c1.15.89,2.26,1.44,3.57,1.44,1.39,0,2.05-.65,2.05-1.55,0-1.08-1.39-1.55-2.75-2.07-1.7-.63-3.62-1.6-3.62-3.75,0-2.25,1.81-3.85,4.69-3.85,1.78,0,3.22.73,4.27,1.55l-1.39,1.83c-.89-.66-1.81-1.1-2.83-1.1-1.29,0-1.89.6-1.89,1.42,0,1.02,1.28,1.42,2.67,1.91,1.76.66,3.7,1.5,3.7,3.91,0,2.2-1.76,3.99-5.01,3.99-1.76,0-3.62-.76-4.88-1.78l1.42-1.94Z"/></svg>