<svg width="51" height="51" viewBox="0 0 51 51" fill="none" xmlns="http://www.w3.org/2000/svg">
<path d="M16.4125 25.2499C19.2016 25.2499 21.4625 22.9889 21.4625 20.1999C21.4625 17.4109 19.2016 15.1499 16.4125 15.1499C13.6235 15.1499 11.3625 17.4109 11.3625 20.1999C11.3625 22.9889 13.6235 25.2499 16.4125 25.2499Z" fill="#007C92" stroke="#007C92" stroke-width="5.05" stroke-linecap="round" stroke-linejoin="round"/>
<path d="M34.0876 17.675C36.8766 17.675 39.1376 15.414 39.1376 12.625C39.1376 9.83591 36.8766 7.57495 34.0876 7.57495C31.2985 7.57495 29.0376 9.83591 29.0376 12.625C29.0376 15.414 31.2985 17.675 34.0876 17.675Z" fill="#007C92" stroke="#007C92" stroke-width="5.05" stroke-linecap="round" stroke-linejoin="round"/>
<path d="M45.8541 30.8707C43.9755 25.9217 39.3573 22.7251 34.0876 22.7251C30.2774 22.7251 26.8257 24.4143 24.485 27.2095C28.2675 29.1537 31.3 32.4388 32.8983 36.653C33.0448 37.0393 33.1306 37.4332 33.219 37.8271C33.5094 37.8397 33.7972 37.8776 34.0876 37.8776C37.3625 37.8776 40.6375 37.1226 43.8871 35.6102C45.6824 34.7744 46.546 32.6938 45.8516 30.8733L45.8541 30.8707Z" fill="#007C92"/>
<path d="M28.1791 38.4457C26.3004 33.4967 21.6822 30.3 16.4126 30.3C11.1429 30.3 6.52465 33.4967 4.64605 38.4457C3.95168 40.2687 4.81523 42.3494 6.6105 43.1851C9.8627 44.6976 13.1351 45.4526 16.41 45.4526C19.685 45.4526 22.9599 44.6976 26.2096 43.1851C28.0048 42.3494 28.8684 40.2688 28.174 38.4482L28.1791 38.4457Z" fill="#007C92"/>
</svg>
